<svg xmlns="http://www.w3.org/2000/svg" width="107.138" height="16.332" viewBox="0 0 107.138 16.332">
  <g id="Grupo_4" data-name="Grupo 4" transform="translate(-289.009 -640.721)">
    <path id="Caminho_34" data-name="Caminho 34" d="M70.39,213a2.87,2.87,0,0,0-2.09.82,2.72,2.72,0,0,0-.85,2,3.17,3.17,0,0,0,1.11,2.49,4.06,4.06,0,0,0,2.83,1,4.9,4.9,0,0,0,1.91-.38,4.09,4.09,0,0,0,1.47-1.06,1,1,0,0,1,.17-.18.21.21,0,0,1,.13,0h.29a.22.22,0,0,1,.2.11,1.14,1.14,0,0,1,.13.41,4.54,4.54,0,0,1,.07.86,7,7,0,0,1-.74,3.24,5.83,5.83,0,0,1-2.12,2.31,5.67,5.67,0,0,1-3.13.87,6.33,6.33,0,0,1-3.25-.85,6.13,6.13,0,0,1-2.34-2.42,7.67,7.67,0,0,1-.09-7,5.82,5.82,0,0,1,2.25-2.34,6.55,6.55,0,0,1,3.38-.85,6.68,6.68,0,0,1,2.59.47,4.27,4.27,0,0,1,1.83,1.33,3.09,3.09,0,0,1,.68,2,2.54,2.54,0,0,1-.92,2.06,3.63,3.63,0,0,1-2.44.78,3.9,3.9,0,0,1-1.68-.36,3,3,0,0,1-1.21-1,2.51,2.51,0,0,1-.45-1.47,2.08,2.08,0,0,1,.71-1.65,2.86,2.86,0,0,1,1.92-.62.33.33,0,0,0,.12-.25.28.28,0,0,0-.14-.24A.59.59,0,0,0,70.39,213Z" transform="translate(225.72 431.562)"/>
    <path id="Caminho_35" data-name="Caminho 35" d="M84.52,225.31a2.89,2.89,0,0,1-2.77-1.59,3,3,0,0,1-1.08,1.21,3.11,3.11,0,0,1-1.58.38,3.28,3.28,0,0,1-2.13-.65,2.12,2.12,0,0,1-.81-1.73,1.84,1.84,0,0,1,.66-1.49,4.14,4.14,0,0,1,2-.74q3.52-.45,3.53-2.67a2.14,2.14,0,0,0-.62-1.52,1.94,1.94,0,0,0-1.46-.65c-.26,0-.4.09-.4.27a.39.39,0,0,0,.06.2,1.89,1.89,0,0,1,1.32.47,1.6,1.6,0,0,1,.52,1.23,1.75,1.75,0,0,1-.74,1.46,2.94,2.94,0,0,1-1.89.58,2.78,2.78,0,0,1-1.86-.59,1.92,1.92,0,0,1-.69-1.54,2.34,2.34,0,0,1,1.25-2.07,6.25,6.25,0,0,1,3.3-.77,5.24,5.24,0,0,1,3.73,1.19,4.55,4.55,0,0,1,1.28,3.49v2.4a1,1,0,0,0,.06.44.2.2,0,0,0,.19.12.26.26,0,0,0,.25-.16,1.92,1.92,0,0,0,.13-.59,1.31,1.31,0,0,1,.08-.39.16.16,0,0,1,.15-.07h.33a.16.16,0,0,1,.16.13,1.22,1.22,0,0,1,0,.44,3.28,3.28,0,0,1-.8,2.38,3,3,0,0,1-2.17.83Zm-3.09-4.15a.37.37,0,0,0-.31-.15c-.22,0-.33.13-.33.38v1.23q0,.39.33.39a.36.36,0,0,0,.31-.16Z" transform="translate(225.72 431.562)"/>
    <path id="Caminho_36" data-name="Caminho 36" d="M90.43,215.33a3,3,0,0,1,1.51.33,1.76,1.76,0,0,1,.78,1.05,3.14,3.14,0,0,1,1.18-1.19,3.26,3.26,0,0,1,1.64-.42,2.86,2.86,0,0,1,1.52.39,2.37,2.37,0,0,1,.94,1.14,2.88,2.88,0,0,1,1.14-1.13,3.4,3.4,0,0,1,1.66-.4,2.59,2.59,0,0,1,2,.8,3.55,3.55,0,0,1,.7,2.36v6.21a.65.65,0,0,1-.15.47.72.72,0,0,1-.51.14H99.63a.76.76,0,0,1-.51-.14.65.65,0,0,1-.14-.47v-6.61a.57.57,0,0,0-.1-.34.31.31,0,0,0-.27-.14.35.35,0,0,0-.32.15v6.94a.65.65,0,0,1-.15.47.72.72,0,0,1-.51.14H94.37a.76.76,0,0,1-.51-.14.65.65,0,0,1-.14-.47v-6.61a.57.57,0,0,0-.1-.34.31.31,0,0,0-.27-.14.37.37,0,0,0-.33.15v6.94a.65.65,0,0,1-.14.47.72.72,0,0,1-.51.14H89.11a.74.74,0,0,1-.51-.14.65.65,0,0,1-.14-.47v-6.78a2.18,2.18,0,0,0-.2-1,1.7,1.7,0,0,0-.71-.66.38.38,0,0,1-.16-.13.21.21,0,0,1,0-.12v-.23c0-.13.08-.19.23-.19Z" transform="translate(225.72 431.562)"/>
    <path id="Caminho_37" data-name="Caminho 37" d="M109.25,215.33a.71.71,0,0,1,.51.14.68.68,0,0,1,.14.47v6.24a1,1,0,0,0,.06.44.2.2,0,0,0,.19.12.24.24,0,0,0,.24-.14,2.711,2.711,0,0,0,.15-.61,1.47,1.47,0,0,1,.07-.39.17.17,0,0,1,.16-.07h.32c.08,0,.13,0,.17.13a1.71,1.71,0,0,1,0,.46,2.87,2.87,0,0,1-3.18,3.19,3,3,0,0,1-2.28-.83,3.36,3.36,0,0,1-.8-2.4v-4.39a2.2,2.2,0,0,0-.19-1,1.76,1.76,0,0,0-.71-.66.38.38,0,0,1-.16-.13.21.21,0,0,1,0-.12v-.23c0-.13.08-.19.23-.19Zm-4.42-2.69a1.66,1.66,0,0,1,.67-1.38,3.41,3.41,0,0,1,3.62,0,1.71,1.71,0,0,1,0,2.74,2.88,2.88,0,0,1-1.81.52,2.92,2.92,0,0,1-1.81-.51A1.66,1.66,0,0,1,104.83,212.64Z" transform="translate(225.72 431.562)"/>
    <path id="Caminho_38" data-name="Caminho 38" d="M116.49,222.87a1.13,1.13,0,0,1-.35.84,1.41,1.41,0,0,1-.94.37.43.43,0,0,0-.08.21c0,.17.12.25.35.25a1.43,1.43,0,0,0,1.1-.53,1.71,1.71,0,0,0,.49-1.22,1.54,1.54,0,0,0-.53-1.23,4.57,4.57,0,0,0-1.87-.76c-1.67-.39-2.51-1.2-2.51-2.46A2.65,2.65,0,0,1,113.6,216a7.57,7.57,0,0,1,3.92-.87,6.58,6.58,0,0,1,3.17.62,1.93,1.93,0,0,1,1.14,1.74,1.45,1.45,0,0,1-.6,1.22,2.69,2.69,0,0,1-1.65.45,3,3,0,0,1-1.69-.44,1.34,1.34,0,0,1-.65-1.16,1.1,1.1,0,0,1,.34-.83,1.43,1.43,0,0,1,.94-.37.42.42,0,0,0,.08-.22c0-.16-.12-.25-.35-.25a1.48,1.48,0,0,0-1.1.53,1.72,1.72,0,0,0-.49,1.22,1.51,1.51,0,0,0,.59,1.25,4.81,4.81,0,0,0,1.94.75,5.28,5.28,0,0,1,2.31.91,2.05,2.05,0,0,1,.69,1.66,2.55,2.55,0,0,1-1.35,2.32,7.67,7.67,0,0,1-3.89.81,8.76,8.76,0,0,1-3.68-.65c-.91-.44-1.37-1-1.37-1.73a1.42,1.42,0,0,1,.6-1.21,2.78,2.78,0,0,1,1.65-.44,3,3,0,0,1,1.68.44,1.33,1.33,0,0,1,.66,1.12Z" transform="translate(225.72 431.562)"/>
    <path id="Caminho_39" data-name="Caminho 39" d="M131,225.31a2.87,2.87,0,0,1-2.76-1.59,2.75,2.75,0,0,1-2.67,1.59,3.28,3.28,0,0,1-2.13-.65,2.12,2.12,0,0,1-.81-1.73,1.84,1.84,0,0,1,.66-1.49,4.18,4.18,0,0,1,2-.74q3.53-.45,3.53-2.67a2.14,2.14,0,0,0-.62-1.52,1.92,1.92,0,0,0-1.45-.65c-.27,0-.41.09-.41.27a.39.39,0,0,0,.06.2,1.89,1.89,0,0,1,1.32.47,1.6,1.6,0,0,1,.52,1.23,1.75,1.75,0,0,1-.74,1.46,2.94,2.94,0,0,1-1.89.58,2.78,2.78,0,0,1-1.86-.59,1.92,1.92,0,0,1-.69-1.54,2.36,2.36,0,0,1,1.25-2.07,6.25,6.25,0,0,1,3.3-.77,5.24,5.24,0,0,1,3.73,1.19,4.51,4.51,0,0,1,1.28,3.49v2.4a1,1,0,0,0,.06.44.2.2,0,0,0,.19.12.25.25,0,0,0,.25-.16,1.92,1.92,0,0,0,.13-.59,1.779,1.779,0,0,1,.08-.39.17.17,0,0,1,.16-.07h.32a.16.16,0,0,1,.16.13,1.22,1.22,0,0,1,.05.44,3.32,3.32,0,0,1-.79,2.38,3,3,0,0,1-2.23.83Zm-3-4.15a.37.37,0,0,0-.31-.15c-.22,0-.32.13-.32.38v1.23c0,.26.1.39.32.39a.36.36,0,0,0,.31-.16Z" transform="translate(225.72 431.562)"/>
    <path id="Caminho_40" data-name="Caminho 40" d="M146.06,212.31a6.35,6.35,0,0,1,3.36.73,2.37,2.37,0,0,1,1.15,2.13,2.69,2.69,0,0,1-.31,1.28,2.74,2.74,0,0,1-.9,1,4.28,4.28,0,0,1-1.46.57,4.25,4.25,0,0,1,2.49,1,2.83,2.83,0,0,1,.87,2.17,3.41,3.41,0,0,1-1.42,2.87,6.23,6.23,0,0,1-3.82,1.07H140.2a.67.67,0,0,1-.49-.15.75.75,0,0,1-.14-.52V214.5a2.34,2.34,0,0,0-.08-.7,1,1,0,0,0-.27-.4,5.589,5.589,0,0,0-.65-.49.19.19,0,0,1-.1-.18v-.23c0-.12.08-.19.23-.19Zm-1.35,5.28H145a.42.42,0,0,0,.48-.48v-3.4a.53.53,0,0,0-.1-.34.3.3,0,0,0-.26-.14.45.45,0,0,0-.37.16Zm0,.87V224a.42.42,0,0,0,.37.16.3.3,0,0,0,.26-.14.53.53,0,0,0,.1-.34v-4.74q0-.48-.54-.48Z" transform="translate(225.72 431.562)"/>
    <path id="Caminho_41" data-name="Caminho 41" d="M152.08,213.64a2.2,2.2,0,0,0-.19-1,1.76,1.76,0,0,0-.71-.66.47.47,0,0,1-.16-.13.21.21,0,0,1,0-.12v-.23c0-.13.08-.19.23-.19h5.07a.71.71,0,0,1,.51.14.68.68,0,0,1,.14.47v10.29a1,1,0,0,0,.06.44.2.2,0,0,0,.19.12.24.24,0,0,0,.24-.14,2.37,2.37,0,0,0,.14-.61,1.78,1.78,0,0,1,.08-.39.16.16,0,0,1,.15-.07h.33a.16.16,0,0,1,.16.13,1.32,1.32,0,0,1,.05.46,2.87,2.87,0,0,1-3.18,3.19,3,3,0,0,1-2.28-.83,3.36,3.36,0,0,1-.8-2.4Z" transform="translate(225.72 431.562)"/>
    <path id="Caminho_42" data-name="Caminho 42" d="M167.39,225.31a2.87,2.87,0,0,1-2.77-1.59,3.07,3.07,0,0,1-1.08,1.21,3.12,3.12,0,0,1-1.59.38,3.32,3.32,0,0,1-2.13-.65,2.12,2.12,0,0,1-.81-1.73,1.82,1.82,0,0,1,.67-1.49,4.14,4.14,0,0,1,2-.74c2.36-.3,3.53-1.19,3.53-2.67a2.13,2.13,0,0,0-.61-1.52,2,2,0,0,0-1.46-.65c-.27,0-.4.09-.4.27a.49.49,0,0,0,.05.2,1.93,1.93,0,0,1,1.33.47,1.6,1.6,0,0,1,.52,1.23,1.78,1.78,0,0,1-.74,1.46,2.94,2.94,0,0,1-1.89.58,2.78,2.78,0,0,1-1.86-.59,1.89,1.89,0,0,1-.7-1.54,2.36,2.36,0,0,1,1.25-2.07,6.25,6.25,0,0,1,3.3-.77,5.27,5.27,0,0,1,3.74,1.19,4.55,4.55,0,0,1,1.28,3.49v2.4a1.32,1.32,0,0,0,.05.44.21.21,0,0,0,.2.12.27.27,0,0,0,.25-.16,2.29,2.29,0,0,0,.13-.59,1,1,0,0,1,.08-.39.249.249,0,0,1,.15-.07h.33a.17.17,0,0,1,.16.13,1.51,1.51,0,0,1,.05.44,3.32,3.32,0,0,1-.8,2.38A3,3,0,0,1,167.39,225.31Zm-1.75-16.15a1.9,1.9,0,0,1,1.37.52,1.84,1.84,0,0,1,.53,1.36,2.88,2.88,0,0,1-.51,1.63,3.88,3.88,0,0,1-1.41,1.24,4.19,4.19,0,0,1-2,.48A3,3,0,0,1,162,214c-.14-.07-.21-.15-.21-.23a.24.24,0,0,1,.06-.15l.11-.19a.17.17,0,0,1,.14-.08.49.49,0,0,1,.17.06h.07a1.32,1.32,0,0,0,.62.17.65.65,0,0,0,.54-.26,1.23,1.23,0,0,0,.19-.72,3.481,3.481,0,0,0,0-.47,1.012,1.012,0,0,0-.07-.45,4.117,4.117,0,0,1,0-.54,2,2,0,0,1,.59-1.45,2.07,2.07,0,0,1,1.43-.53Zm-1.35,12a.36.36,0,0,0-.3-.15c-.22,0-.33.13-.33.38v1.23q0,.39.33.39a.34.34,0,0,0,.3-.16Z" transform="translate(225.72 431.562)"/>
  </g>
</svg>
