<svg xmlns="http://www.w3.org/2000/svg" width="181.904" height="32.331" viewBox="0 0 181.904 32.331">
  <g id="Grupo_2" data-name="Grupo 2" transform="translate(-289 -524.128)">
    <path id="Caminho_22" data-name="Caminho 22" d="M74.52,98.87a1.34,1.34,0,0,1,1,.3,1.52,1.52,0,0,1,.28,1v22a.82.82,0,0,0,.7.31c.43,0,.65-.28.65-.84V114.3a1.14,1.14,0,0,1,1.32-1.3h4.72a4,4,0,0,1,3.19,1.17,5.31,5.31,0,0,1,1,3.59v5.34a1.49,1.49,0,0,1-.29,1,1.28,1.28,0,0,1-1,.31H66.76a1.28,1.28,0,0,1-1-.31,1.49,1.49,0,0,1-.29-1V103.24a4.75,4.75,0,0,0-.15-1.4,2,2,0,0,0-.54-.8,9.639,9.639,0,0,0-1.3-1,.39.39,0,0,1-.2-.35v-.46c0-.26.16-.38.46-.38Z" transform="translate(225.72 431.562)"/>
    <path id="Caminho_23" data-name="Caminho 23" d="M97.79,104.89a1.42,1.42,0,0,1,1,.29,1.26,1.26,0,0,1,.29.94V118.6a2.21,2.21,0,0,0,.12.89.39.39,0,0,0,.38.23.49.49,0,0,0,.48-.27,5.179,5.179,0,0,0,.29-1.23,3,3,0,0,1,.15-.79.33.33,0,0,1,.31-.13h.65a.34.34,0,0,1,.33.27,3.14,3.14,0,0,1,.1.92,5.77,5.77,0,0,1-6.38,6.37A6,6,0,0,1,91,123.19a6.66,6.66,0,0,1-1.59-4.78v-8.79a4.38,4.38,0,0,0-.39-2.06,3.67,3.67,0,0,0-1.42-1.32.85.85,0,0,1-.32-.25.49.49,0,0,1-.06-.25v-.46c0-.26.15-.39.46-.39ZM89,99.52a3.32,3.32,0,0,1,1.35-2.77,5.76,5.76,0,0,1,3.61-1,5.86,5.86,0,0,1,3.63,1,3.3,3.3,0,0,1,1.36,2.77,3.24,3.24,0,0,1-1.36,2.72,6.88,6.88,0,0,1-7.24,0A3.24,3.24,0,0,1,89,99.52Z" transform="translate(225.72 431.562)"/>
    <path id="Caminho_24" data-name="Caminho 24" d="M108,104.89a5.87,5.87,0,0,1,3,.68,3.44,3.44,0,0,1,1.55,2.09,6,6,0,0,1,2.4-2.4,7.09,7.09,0,0,1,3.44-.83,5.33,5.33,0,0,1,4.22,1.65,6.9,6.9,0,0,1,1.46,4.69v12.4a1.25,1.25,0,0,1-.29.94,1.37,1.37,0,0,1-1,.29h-6.92a1.37,1.37,0,0,1-1-.29,1.25,1.25,0,0,1-.29-.94V110a1.22,1.22,0,0,0-.19-.69.63.63,0,0,0-.54-.27.7.7,0,0,0-.65.31v13.86a1.29,1.29,0,0,1-.29.94,1.38,1.38,0,0,1-1,.29h-6.91a1.38,1.38,0,0,1-1-.29,1.29,1.29,0,0,1-.29-.94V109.62a4.53,4.53,0,0,0-.38-2.06,3.74,3.74,0,0,0-1.42-1.32,1,1,0,0,1-.33-.25.49.49,0,0,1-.06-.25v-.46c0-.26.16-.39.47-.39Z" transform="translate(225.72 431.562)"/>
    <path id="Caminho_25" data-name="Caminho 25" d="M127.2,101.52a4.5,4.5,0,0,0-.38-2.06,3.74,3.74,0,0,0-1.42-1.32,1.2,1.2,0,0,1-.33-.25.49.49,0,0,1-.06-.25v-.46c0-.26.16-.39.46-.39h9.95a1.46,1.46,0,0,1,1,.29,1.31,1.31,0,0,1,.28.94v8.76a6.33,6.33,0,0,1,5.23-2.35,5.33,5.33,0,0,1,4.22,1.65,6.9,6.9,0,0,1,1.46,4.69v12.4a1.29,1.29,0,0,1-.29.94,1.38,1.38,0,0,1-1,.29h-6.91a1.41,1.41,0,0,1-1-.29,1.29,1.29,0,0,1-.28-.94V110a1.15,1.15,0,0,0-.2-.69.6.6,0,0,0-.53-.27.73.73,0,0,0-.66.31v13.86a1.29,1.29,0,0,1-.28.94,1.41,1.41,0,0,1-1,.29h-6.91a1.38,1.38,0,0,1-1-.29,1.29,1.29,0,0,1-.29-.94Z" transform="translate(225.72 431.562)"/>
    <path id="Caminho_26" data-name="Caminho 26" d="M166.37,124.86a5.73,5.73,0,0,1-5.53-3.19,5.5,5.5,0,0,1-5.34,3.19,6.56,6.56,0,0,1-4.26-1.3,4.22,4.22,0,0,1-1.61-3.46,3.68,3.68,0,0,1,1.32-3,8.22,8.22,0,0,1,4.09-1.47q7.07-.93,7.07-5.34a4.24,4.24,0,0,0-1.23-3A3.9,3.9,0,0,0,158,106q-.81,0-.81.54a.71.71,0,0,0,.12.38,3.75,3.75,0,0,1,2.65,1,3.2,3.2,0,0,1,1,2.46,3.56,3.56,0,0,1-1.47,2.92,6,6,0,0,1-3.79,1.15,5.56,5.56,0,0,1-3.72-1.17,3.85,3.85,0,0,1-1.38-3.09,4.7,4.7,0,0,1,2.49-4.13,12.37,12.37,0,0,1,6.61-1.56c3.27,0,5.76.8,7.47,2.38s2.55,3.92,2.55,7v4.8a2.47,2.47,0,0,0,.11.89.41.41,0,0,0,.39.23.54.54,0,0,0,.5-.31,4.571,4.571,0,0,0,.27-1.19,3,3,0,0,1,.15-.79c.05-.09.15-.13.31-.13h.65a.35.35,0,0,1,.33.27,3,3,0,0,1,.09.88,6.59,6.59,0,0,1-1.59,4.74,6,6,0,0,1-4.56,1.59Zm-6.18-8.29a.73.73,0,0,0-.62-.31c-.43,0-.65.26-.65.77v2.46c0,.51.22.76.65.76a.75.75,0,0,0,.62-.3Z" transform="translate(225.72 431.562)"/>
    <path id="Caminho_27" data-name="Caminho 27" d="M196.4,98.87c3,0,5.21.48,6.74,1.45a4.77,4.77,0,0,1,2.28,4.27,5.25,5.25,0,0,1-.61,2.55,5.34,5.34,0,0,1-1.81,1.92,8,8,0,0,1-2.92,1.13,8.57,8.57,0,0,1,5,2,5.63,5.63,0,0,1,1.73,4.34,6.78,6.78,0,0,1-2.84,5.74,12.44,12.44,0,0,1-7.64,2.13H184.69a1.27,1.27,0,0,1-1-.31,1.44,1.44,0,0,1-.29-1V103.24a4.37,4.37,0,0,0-.16-1.4,2,2,0,0,0-.53-.8,10.63,10.63,0,0,0-1.31-1,.39.39,0,0,1-.19-.35v-.46c0-.26.15-.38.46-.38Zm-2.69,10.56h.5a.85.85,0,0,0,1-1v-6.8A1.22,1.22,0,0,0,195,101a.63.63,0,0,0-.54-.27.83.83,0,0,0-.73.31Zm0,1.72v11.1a.83.83,0,0,0,.73.31.63.63,0,0,0,.54-.27,1.22,1.22,0,0,0,.19-.69v-9.49q0-1-1.08-1Z" transform="translate(225.72 431.562)"/>
    <path id="Caminho_28" data-name="Caminho 28" d="M208.45,101.52a4.5,4.5,0,0,0-.38-2.06,3.74,3.74,0,0,0-1.42-1.32,1.2,1.2,0,0,1-.33-.25.49.49,0,0,1-.06-.25v-.46c0-.26.16-.39.47-.39h10.13a1.43,1.43,0,0,1,1,.29,1.31,1.31,0,0,1,.29.94V118.6a2.47,2.47,0,0,0,.11.89.41.41,0,0,0,.39.23.49.49,0,0,0,.48-.27,5.761,5.761,0,0,0,.29-1.23,3,3,0,0,1,.15-.79c0-.09.15-.13.31-.13h.65a.35.35,0,0,1,.33.27,3.23,3.23,0,0,1,.09.92,5.76,5.76,0,0,1-6.37,6.37,6,6,0,0,1-4.55-1.67,6.62,6.62,0,0,1-1.6-4.78Z" transform="translate(225.72 431.562)"/>
    <path id="Caminho_29" data-name="Caminho 29" d="M239.06,124.86a5.73,5.73,0,0,1-5.53-3.19,5.5,5.5,0,0,1-5.34,3.19,6.55,6.55,0,0,1-4.26-1.3,4.23,4.23,0,0,1-1.62-3.46,3.68,3.68,0,0,1,1.33-3,8.22,8.22,0,0,1,4.09-1.47q7.07-.93,7.07-5.34a4.24,4.24,0,0,0-1.23-3,3.91,3.91,0,0,0-2.92-1.29q-.81,0-.81.54a.71.71,0,0,0,.12.38,3.75,3.75,0,0,1,2.65,1,3.2,3.2,0,0,1,1,2.46,3.54,3.54,0,0,1-1.48,2.92,5.93,5.93,0,0,1-3.78,1.15,5.56,5.56,0,0,1-3.72-1.17,3.86,3.86,0,0,1-1.39-3.09,4.71,4.71,0,0,1,2.5-4.13,12.37,12.37,0,0,1,6.61-1.56c3.27,0,5.76.8,7.46,2.38s2.56,3.92,2.56,7v4.8a2.47,2.47,0,0,0,.11.89.41.41,0,0,0,.39.23.54.54,0,0,0,.5-.31,4.571,4.571,0,0,0,.27-1.19,3,3,0,0,1,.15-.79c.05-.09.15-.13.31-.13h.65a.35.35,0,0,1,.33.27,3,3,0,0,1,.09.88,6.59,6.59,0,0,1-1.59,4.74A6,6,0,0,1,239.06,124.86Zm-3.5-32.29a3.77,3.77,0,0,1,2.75,1,3.68,3.68,0,0,1,1.05,2.73,5.79,5.79,0,0,1-1,3.25,7.61,7.61,0,0,1-2.83,2.47,8.34,8.34,0,0,1-4,1,6.08,6.08,0,0,1-3.22-.8c-.29-.16-.43-.31-.43-.46a.48.48,0,0,1,.12-.31l.23-.39a.34.34,0,0,1,.27-.15.86.86,0,0,1,.34.12l.16.07a2.5,2.5,0,0,0,1.23.35,1.25,1.25,0,0,0,1.07-.52,2.37,2.37,0,0,0,.39-1.44,7,7,0,0,0-.06-.94,5.788,5.788,0,0,0-.14-.9,6.91,6.91,0,0,1-.07-1.08,3.94,3.94,0,0,1,1.17-2.9A4.07,4.07,0,0,1,235.56,92.57Zm-2.68,24a.73.73,0,0,0-.62-.31c-.44,0-.65.26-.65.77v2.46c0,.51.21.76.65.76a.75.75,0,0,0,.62-.3Z" transform="translate(225.72 431.562)"/>
  </g>
</svg>
