<svg xmlns="http://www.w3.org/2000/svg" width="85.472" height="36.858" viewBox="0 0 85.472 36.858">
  <g id="Grupo_3" data-name="Grupo 3" transform="translate(-289 -580.106)">
    <path id="Caminho_30" data-name="Caminho 30" d="M86.15,150.65a1.32,1.32,0,0,1,1,.31,1.52,1.52,0,0,1,.29,1v5.49a5.31,5.31,0,0,1-1,3.59,4,4,0,0,1-3.19,1.17H78.47a1.14,1.14,0,0,1-1.34-1.34V153.3c0-.56-.22-.84-.65-.84a.84.84,0,0,0-.7.3v10.6h7.3c.31,0,.46.14.46.43v1c0,.26-.15.39-.46.39h-7.3v9.64a1.49,1.49,0,0,1-.28,1,1.3,1.3,0,0,1-1,.31H66.76a1.28,1.28,0,0,1-1-.31,1.49,1.49,0,0,1-.29-1V155a4.75,4.75,0,0,0-.15-1.4,2.06,2.06,0,0,0-.54-.81,9.77,9.77,0,0,0-1.3-1,.39.39,0,0,1-.2-.35V151c0-.26.16-.39.46-.39Z" transform="translate(225.72 431.562)"/>
    <path id="Caminho_31" data-name="Caminho 31" d="M89.76,153.3a4.48,4.48,0,0,0-.38-2.05A3.67,3.67,0,0,0,88,149.93a1.2,1.2,0,0,1-.33-.25.49.49,0,0,1-.06-.25V149c0-.25.16-.38.46-.38h10.1a1.43,1.43,0,0,1,1,.29,1.29,1.29,0,0,1,.29.94v20.58a2.17,2.17,0,0,0,.11.88.41.41,0,0,0,.39.24.49.49,0,0,0,.48-.27,6,6,0,0,0,.28-1.23,2.82,2.82,0,0,1,.16-.79.31.31,0,0,1,.3-.13h.66a.33.33,0,0,1,.32.26,2.89,2.89,0,0,1,.1.93,5.76,5.76,0,0,1-6.37,6.37A6,6,0,0,1,91.35,175a6.66,6.66,0,0,1-1.59-4.78Z" transform="translate(225.72 431.562)"/>
    <path id="Caminho_32" data-name="Caminho 32" d="M120.37,176.65a5.73,5.73,0,0,1-5.53-3.19,5.5,5.5,0,0,1-5.34,3.19,6.55,6.55,0,0,1-4.26-1.3,4.23,4.23,0,0,1-1.62-3.46,3.65,3.65,0,0,1,1.33-3,8.18,8.18,0,0,1,4.09-1.48q7.06-.92,7.06-5.33a4.28,4.28,0,0,0-1.23-3.06,3.92,3.92,0,0,0-2.91-1.28q-.81,0-.81.54a.82.82,0,0,0,.11.38,3.74,3.74,0,0,1,2.65,1,3.21,3.21,0,0,1,1,2.46,3.56,3.56,0,0,1-1.48,2.92,6,6,0,0,1-3.78,1.15A5.56,5.56,0,0,1,106,165a3.83,3.83,0,0,1-1.39-3.09,4.68,4.68,0,0,1,2.5-4.13,12.3,12.3,0,0,1,6.6-1.56c3.28,0,5.77.8,7.47,2.38s2.56,3.92,2.56,7v4.8a2.17,2.17,0,0,0,.11.88.41.41,0,0,0,.39.24.51.51,0,0,0,.49-.31A3.86,3.86,0,0,0,125,170a2.82,2.82,0,0,1,.16-.79.31.31,0,0,1,.3-.13h.66a.33.33,0,0,1,.32.26,2.73,2.73,0,0,1,.1.89,6.59,6.59,0,0,1-1.59,4.74,6,6,0,0,1-4.58,1.68Zm-6.19-8.29a.71.71,0,0,0-.61-.31c-.44,0-.65.26-.65.77v2.45c0,.52.21.77.65.77a.73.73,0,0,0,.61-.3Z" transform="translate(225.72 431.562)"/>
    <path id="Caminho_33" data-name="Caminho 33" d="M140.64,153.38a2.32,2.32,0,0,1,.79-1.8,2.77,2.77,0,0,1,2-.73,2.74,2.74,0,0,1,1.34.3.6.6,0,0,0,.19-.46c0-.23-.15-.41-.46-.55a3,3,0,0,0-1.23-.21,3.77,3.77,0,0,0-2.65,1,3.26,3.26,0,0,0-1.07,2.5,3.33,3.33,0,0,0,.73,2.07,5.47,5.47,0,0,0,2.11,1.61,12.13,12.13,0,0,1,4.34,3.15,6.67,6.67,0,0,1,1.3,4.19,8,8,0,0,1-1.24,4.4,8.37,8.37,0,0,1-3.6,3,12.71,12.71,0,0,1-5.45,1.09,12.13,12.13,0,0,1-6.6-1.69.93.93,0,0,0-.31.66c0,.36.3.7.9,1a8.81,8.81,0,0,0,2.52.83,17.379,17.379,0,0,0,3.49.33,25.787,25.787,0,0,0,2.88-.19c.88-.1,1.72-.17,2.46-.2a5.82,5.82,0,0,1,4,1.27,4.46,4.46,0,0,1,1.44,3.53,5.43,5.43,0,0,1-1.32,3.63,8.48,8.48,0,0,1-3.82,2.42,17.91,17.91,0,0,1-5.88.86,16.52,16.52,0,0,1-6.56-1.09c-1.67-.73-2.5-1.68-2.5-2.86a2.67,2.67,0,0,1,.69-1.77,5.75,5.75,0,0,1-1.76-4.37,6.11,6.11,0,0,1,.67-2.85,5.86,5.86,0,0,1,1.9-2.15,7.45,7.45,0,0,1-2.54-5.76,7.58,7.58,0,0,1,1.23-4.2,8.7,8.7,0,0,1,3.5-3,11.39,11.39,0,0,1,5.14-1.13h.69a5.46,5.46,0,0,1,.69.1,5.5,5.5,0,0,1-.49-1.19,5.77,5.77,0,0,1-.23-1.65,4.43,4.43,0,0,1,1.61-3.54,6,6,0,0,1,4.07-1.38,5.81,5.81,0,0,1,3.72,1.13,3.59,3.59,0,0,1,1.42,2.94,3.28,3.28,0,0,1-1.19,2.63,5,5,0,0,1-5.78.19A2.53,2.53,0,0,1,140.64,153.38Zm1.69,28.19a13.76,13.76,0,0,1-5.18,1,12.4,12.4,0,0,1-6.57-1.69.75.75,0,0,0-.31.65c0,.56.71,1.07,2.13,1.52a16.41,16.41,0,0,0,4.86.67,14.91,14.91,0,0,0,3.73-.42c1.07-.29,1.61-.67,1.61-1.16a.6.6,0,0,0-.27-.57Zm-4.65-10.37c.46,0,.69-.35.69-1V159c0-.69-.23-1-.69-1s-.69.34-.69,1v11.14c.01.71.23,1.06.69,1.06Z" transform="translate(225.72 431.562)"/>
  </g>
</svg>
