<svg xmlns="http://www.w3.org/2000/svg" width="274.204" height="29.412" viewBox="0 0 274.204 29.412">
  <g id="Grupo_1" data-name="Grupo 1" transform="translate(-289 -471)">
    <path id="Caminho_11" data-name="Caminho 11" d="M77.32,42.66q5.69,0,8.85,3.36t3.17,9.35A14.64,14.64,0,0,1,87.88,62a10.72,10.72,0,0,1-4.21,4.53,12.25,12.25,0,0,1-6.39,1.64H66.76a1.32,1.32,0,0,1-1-.31,1.5,1.5,0,0,1-.29-1V47a3.73,3.73,0,0,0-.3-1.75,5.86,5.86,0,0,0-1.69-1.4.38.38,0,0,1-.2-.34V43c0-.25.16-.38.46-.38ZM75.78,66.05a.87.87,0,0,0,.73.3.63.63,0,0,0,.54-.27,1.11,1.11,0,0,0,.19-.69V45.46a1.15,1.15,0,0,0-.19-.69.63.63,0,0,0-.54-.27.88.88,0,0,0-.73.31Z" transform="translate(225.72 431.562)"/>
    <path id="Caminho_12" data-name="Caminho 12" d="M99.78,59.33c0,.59.5,1.13,1.5,1.63a7.35,7.35,0,0,0,3.34.75,7.91,7.91,0,0,0,6-2.46,2.62,2.62,0,0,1,.33-.29.55.55,0,0,1,.29-.06h.46a.36.36,0,0,1,.36.2,1.55,1.55,0,0,1,.1.69,8,8,0,0,1-1.29,4.39,9.26,9.26,0,0,1-3.65,3.25,11.23,11.23,0,0,1-5.28,1.23,12.12,12.12,0,0,1-5.6-1.27,9.81,9.81,0,0,1-5.46-9,10.05,10.05,0,0,1,1.39-5.26A9.73,9.73,0,0,1,96.2,49.5a12.87,12.87,0,0,1,6-1.32,12.53,12.53,0,0,1,4.63.81,7.54,7.54,0,0,1,3.25,2.3,5.42,5.42,0,0,1,1.19,3.46,5.28,5.28,0,0,1-1.81,4.12,6.53,6.53,0,0,1-4.57,1.64,5.87,5.87,0,0,1-4.49-1.85.56.56,0,0,0-.4.17A.61.61,0,0,0,99.78,59.33Zm1.16-2.65a.72.72,0,0,0,.61.3c.46,0,.69-.25.69-.76V50.76c0-.51-.23-.76-.69-.76a.72.72,0,0,0-.61.3Z" transform="translate(225.72 431.562)"/>
    <path id="Caminho_13" data-name="Caminho 13" d="M114.15,48.69V46.81a6.73,6.73,0,0,1,2.34-5.36,9.21,9.21,0,0,1,6.22-2,8.94,8.94,0,0,1,5,1.26,3.83,3.83,0,0,1,1.92,3.3,3.17,3.17,0,0,1-1.4,2.73,6.39,6.39,0,0,1-3.78,1,6.14,6.14,0,0,1-3.54-.88,2.81,2.81,0,0,1-1.26-2.42,2.34,2.34,0,0,1,.84-1.87,3.49,3.49,0,0,1,2.31-.71.31.31,0,0,0,.09-.19,1.54,1.54,0,0,0,0-.19q0-.54-.81-.54a3.62,3.62,0,0,0-3.61,3.61c0,1.87,1.16,3.25,3.46,4.15h5.22c.31,0,.46.13.46.38v.69c0,.26-.15.39-.46.39h-3.84a1.94,1.94,0,0,1,.58.71,3,3,0,0,1,.15,1.09V67a1.26,1.26,0,0,1-.29.94,1.42,1.42,0,0,1-1,.29h-7.3a1.45,1.45,0,0,1-1-.29,1.31,1.31,0,0,1-.28-.94V50.15h-2.58c-.3,0-.46-.13-.46-.39v-.69c0-.25.16-.38.46-.38Z" transform="translate(225.72 431.562)"/>
    <path id="Caminho_14" data-name="Caminho 14" d="M135.38,59.33c0,.59.5,1.13,1.5,1.63a7.35,7.35,0,0,0,3.34.75,7.91,7.91,0,0,0,6-2.46,2.05,2.05,0,0,1,.33-.29.51.51,0,0,1,.28-.06h.46a.38.38,0,0,1,.37.2,1.71,1.71,0,0,1,.1.69,8,8,0,0,1-1.29,4.39,9.33,9.33,0,0,1-3.65,3.25,11.23,11.23,0,0,1-5.28,1.23,12.19,12.19,0,0,1-5.61-1.27,9.94,9.94,0,0,1-4-3.61,9.75,9.75,0,0,1-1.48-5.34,10,10,0,0,1,1.38-5.26,9.82,9.82,0,0,1,3.94-3.63,12.82,12.82,0,0,1,6-1.32,12.53,12.53,0,0,1,4.63.81,7.44,7.44,0,0,1,3.24,2.3,5.37,5.37,0,0,1,1.19,3.46,5.31,5.31,0,0,1-1.8,4.12,6.57,6.57,0,0,1-4.57,1.64A5.87,5.87,0,0,1,136,58.71a.58.58,0,0,0-.41.17.64.64,0,0,0-.21.45Zm1.15-2.65a.75.75,0,0,0,.62.3c.46,0,.69-.25.69-.76V50.76c0-.51-.23-.76-.69-.76a.75.75,0,0,0-.62.3Z" transform="translate(225.72 431.562)"/>
    <path id="Caminho_15" data-name="Caminho 15" d="M154,48.69a5.88,5.88,0,0,1,3,.67,3.49,3.49,0,0,1,1.55,2.09,6,6,0,0,1,2.4-2.4,7.08,7.08,0,0,1,3.44-.82,5.33,5.33,0,0,1,4.22,1.65,6.8,6.8,0,0,1,1.46,4.68V67a1.26,1.26,0,0,1-.29.94,1.42,1.42,0,0,1-1,.29h-6.92a1.42,1.42,0,0,1-1-.29,1.26,1.26,0,0,1-.29-.94V53.76a1.22,1.22,0,0,0-.19-.69.63.63,0,0,0-.54-.27.68.68,0,0,0-.65.31V67a1.31,1.31,0,0,1-.29.94,1.43,1.43,0,0,1-1,.29H151a1.43,1.43,0,0,1-1-.29,1.31,1.31,0,0,1-.29-.94V53.41a4.48,4.48,0,0,0-.38-2A3.68,3.68,0,0,0,147.9,50a.9.9,0,0,1-.33-.25.44.44,0,0,1-.06-.25v-.46c0-.25.16-.38.47-.38Z" transform="translate(225.72 431.562)"/>
    <path id="Caminho_16" data-name="Caminho 16" d="M184.07,45.31a4.45,4.45,0,0,0-.38-2.05,3.68,3.68,0,0,0-1.42-1.33.9.9,0,0,1-.33-.25.46.46,0,0,1-.06-.25V41c0-.25.16-.38.46-.38h9.95a1.41,1.41,0,0,1,1,.29,1.29,1.29,0,0,1,.28.94V62.4a2.16,2.16,0,0,0,.12.88.38.38,0,0,0,.38.23.51.51,0,0,0,.5-.31,4.46,4.46,0,0,0,.27-1.19,2.46,2.46,0,0,1,.16-.78.31.31,0,0,1,.3-.14h.7a.33.33,0,0,1,.32.27,3,3,0,0,1,.1.88A6.6,6.6,0,0,1,194.8,67a6,6,0,0,1-4.55,1.67,5.79,5.79,0,0,1-5.53-3.19,5.52,5.52,0,0,1-5.22,3.19,6.08,6.08,0,0,1-5.28-2.75q-1.91-2.74-1.9-7.62t1.92-7.41a6.25,6.25,0,0,1,5.38-2.65,6,6,0,0,1,4.45,1.61Zm-1.38,17.86c0,.61.24.92.73.92a.75.75,0,0,0,.65-.31V51.92a.75.75,0,0,0-.65-.31c-.49,0-.73.31-.73.92Z" transform="translate(225.72 431.562)"/>
    <path id="Caminho_17" data-name="Caminho 17" d="M214.48,68.66A5.74,5.74,0,0,1,209,65.47a6,6,0,0,1-2.17,2.42,6.08,6.08,0,0,1-3.17.77,6.59,6.59,0,0,1-4.26-1.31,4.23,4.23,0,0,1-1.61-3.45,3.66,3.66,0,0,1,1.32-3,8.26,8.26,0,0,1,4.09-1.48q7.07-.91,7.07-5.34A4.28,4.28,0,0,0,209,51.05a3.9,3.9,0,0,0-2.92-1.29c-.54,0-.8.18-.8.54a.82.82,0,0,0,.11.39,3.74,3.74,0,0,1,2.65,1,3.2,3.2,0,0,1,1,2.45A3.57,3.57,0,0,1,207.59,57a6,6,0,0,1-3.78,1.15A5.59,5.59,0,0,1,200.08,57a3.85,3.85,0,0,1-1.38-3.09,4.7,4.7,0,0,1,2.5-4.13,12.4,12.4,0,0,1,6.6-1.55q4.92,0,7.47,2.38t2.55,7v4.8a2.16,2.16,0,0,0,.12.88.38.38,0,0,0,.38.23.51.51,0,0,0,.5-.31,4.459,4.459,0,0,0,.27-1.19,3,3,0,0,1,.15-.78.34.34,0,0,1,.31-.14h.65a.34.34,0,0,1,.33.27,3,3,0,0,1,.1.88A6.64,6.64,0,0,1,219,67,6,6,0,0,1,214.48,68.66Zm-6.18-8.3a.73.73,0,0,0-.61-.3c-.44,0-.66.25-.66.76v2.46c0,.51.22.77.66.77a.71.71,0,0,0,.61-.31Z" transform="translate(225.72 431.562)"/>
    <path id="Caminho_18" data-name="Caminho 18" d="M240.94,68.66q-5.41,0-8.24-2.61t-2.82-7.61c0-3.32.94-5.86,2.82-7.6s4.63-2.61,8.24-2.61,6.35.87,8.24,2.61,2.82,4.28,2.82,7.6-.94,5.87-2.82,7.61S244.55,68.66,240.94,68.66Zm0-1.77c.46,0,.69-.34.69-1V51c0-.69-.23-1-.69-1s-.69.34-.69,1V65.85c0,.7.23,1.04.69,1.04Z" transform="translate(225.72 431.562)"/>
    <path id="Caminho_19" data-name="Caminho 19" d="M285.44,60.9a6.62,6.62,0,0,1-3.18,5.9c-2.13,1.37-5.17,2-9.14,2q-5.53,0-8.39-1.67a5.3,5.3,0,0,1-2.86-4.86,4.06,4.06,0,0,1,1.42-3.2,5.27,5.27,0,0,1,3.65-1.25A6.69,6.69,0,0,1,271,59a3.6,3.6,0,0,1,1.52,3,2.86,2.86,0,0,1-1,2.31,4.52,4.52,0,0,1-2.8.92.7.7,0,0,0-.23.5.46.46,0,0,0,.25.42,1.22,1.22,0,0,0,.63.15,4.5,4.5,0,0,0,3.21-1.22A4.08,4.08,0,0,0,273.87,62a4.55,4.55,0,0,0-.62-2.47,5.3,5.3,0,0,0-2-1.75,20,20,0,0,0-3.7-1.5,8.11,8.11,0,0,1-4-2.42,6,6,0,0,1-1.3-3.86,6.33,6.33,0,0,1,1.44-4.09A9.65,9.65,0,0,1,267.84,43a17.61,17.61,0,0,1,6.31-1,15.323,15.323,0,0,1,7.93,1.73,5.34,5.34,0,0,1,2.86,4.8,4,4,0,0,1-1.47,3.2A5.74,5.74,0,0,1,279.65,53a6.14,6.14,0,0,1-3.9-1.15,3.66,3.66,0,0,1-1.48-3,2.84,2.84,0,0,1,1-2.3,4.52,4.52,0,0,1,2.8-.92.67.67,0,0,0,.23-.5.46.46,0,0,0-.25-.42,1.2,1.2,0,0,0-.63-.16,4.63,4.63,0,0,0-2.25.56,4.3,4.3,0,0,0-1.63,1.54,4,4,0,0,0-.61,2.2,4.34,4.34,0,0,0,1.42,3.4,12.29,12.29,0,0,0,4.87,2.25,10.22,10.22,0,0,1,4.71,2.46,5.52,5.52,0,0,1,1.51,3.94Z" transform="translate(225.72 431.562)"/>
    <path id="Caminho_20" data-name="Caminho 20" d="M297.89,42.66a1.25,1.25,0,0,1,1,.31,1.44,1.44,0,0,1,.29,1V65.85c0,.7.25,1,.73,1s.73-.34.73-1V44a1.49,1.49,0,0,1,.29-1,1.28,1.28,0,0,1,1-.31h8.49a1.41,1.41,0,0,1,1,.29,1.21,1.21,0,0,1,.31.94V57.68c0,3.68-1,6.47-3,8.35s-4.93,2.82-8.82,2.82-6.79-.94-8.79-2.82-3-4.67-3-8.35V47a4.7,4.7,0,0,0-.15-1.4,1.93,1.93,0,0,0-.54-.81,10.581,10.581,0,0,0-1.3-1,.38.38,0,0,1-.2-.34V43c0-.25.16-.38.47-.38Z" transform="translate(225.72 431.562)"/>
    <path id="Caminho_21" data-name="Caminho 21" d="M337.48,60.9a6.62,6.62,0,0,1-3.19,5.9c-2.13,1.37-5.17,2-9.14,2-3.69,0-6.48-.56-8.39-1.67a5.3,5.3,0,0,1-2.86-4.86,4.06,4.06,0,0,1,1.42-3.2,5.29,5.29,0,0,1,3.68-1.2A6.75,6.75,0,0,1,323.06,59a3.61,3.61,0,0,1,1.51,3,2.86,2.86,0,0,1-1,2.31,4.52,4.52,0,0,1-2.8.92.7.7,0,0,0-.23.5.46.46,0,0,0,.25.42,1.22,1.22,0,0,0,.63.15,4.5,4.5,0,0,0,3.21-1.22A4.08,4.08,0,0,0,325.92,62a4.55,4.55,0,0,0-.62-2.47,5.3,5.3,0,0,0-2-1.75,19.73,19.73,0,0,0-3.7-1.5,8,8,0,0,1-4-2.42A5.93,5.93,0,0,1,314.28,50a6.33,6.33,0,0,1,1.44-4.09A9.65,9.65,0,0,1,319.87,43a17.63,17.63,0,0,1,6.32-1,15.3,15.3,0,0,1,7.93,1.73,5.36,5.36,0,0,1,2.86,4.8,4,4,0,0,1-1.48,3.2A5.74,5.74,0,0,1,331.68,53a6.14,6.14,0,0,1-3.9-1.15,3.66,3.66,0,0,1-1.48-3,2.84,2.84,0,0,1,1-2.3,4.52,4.52,0,0,1,2.8-.92.67.67,0,0,0,.23-.5.46.46,0,0,0-.25-.42,1.17,1.17,0,0,0-.63-.16,4.63,4.63,0,0,0-2.25.56,4.3,4.3,0,0,0-1.63,1.54,4,4,0,0,0-.61,2.2,4.34,4.34,0,0,0,1.42,3.4,12.29,12.29,0,0,0,4.87,2.25A10.22,10.22,0,0,1,336,56.91,5.53,5.53,0,0,1,337.48,60.9Z" transform="translate(225.72 431.562)"/>
  </g>
</svg>
