<svg id="Camada_1" data-name="Camada 1" xmlns="http://www.w3.org/2000/svg" viewBox="0 0 400 250"><path d="M77.32,42.66q5.69,0,8.85,3.36t3.17,9.35A14.64,14.64,0,0,1,87.88,62a10.72,10.72,0,0,1-4.21,4.53,12.25,12.25,0,0,1-6.39,1.64H66.76a1.32,1.32,0,0,1-1-.31,1.5,1.5,0,0,1-.29-1V47a3.73,3.73,0,0,0-.3-1.75,5.86,5.86,0,0,0-1.69-1.4.38.38,0,0,1-.2-.34V43c0-.25.16-.38.46-.38ZM75.78,66.05a.87.87,0,0,0,.73.3.63.63,0,0,0,.54-.27,1.11,1.11,0,0,0,.19-.69V45.46a1.15,1.15,0,0,0-.19-.69.63.63,0,0,0-.54-.27.88.88,0,0,0-.73.31Z"/><path d="M99.78,59.33c0,.59.5,1.13,1.5,1.63a7.35,7.35,0,0,0,3.34.75,7.91,7.91,0,0,0,6-2.46,2.62,2.62,0,0,1,.33-.29.55.55,0,0,1,.29-.06h.46a.36.36,0,0,1,.36.2,1.55,1.55,0,0,1,.1.69,8,8,0,0,1-1.29,4.39,9.26,9.26,0,0,1-3.65,3.25,11.23,11.23,0,0,1-5.28,1.23,12.12,12.12,0,0,1-5.6-1.27,9.81,9.81,0,0,1-5.46-9,10.05,10.05,0,0,1,1.39-5.26,9.73,9.73,0,0,1,3.93-3.63,12.87,12.87,0,0,1,6-1.32,12.53,12.53,0,0,1,4.63.81,7.54,7.54,0,0,1,3.25,2.3,5.42,5.42,0,0,1,1.19,3.46,5.28,5.28,0,0,1-1.81,4.12,6.53,6.53,0,0,1-4.57,1.64,5.87,5.87,0,0,1-4.49-1.85.56.56,0,0,0-.4.17A.61.61,0,0,0,99.78,59.33Zm1.16-2.65a.72.72,0,0,0,.61.3c.46,0,.69-.25.69-.76V50.76c0-.51-.23-.76-.69-.76a.72.72,0,0,0-.61.3Z"/><path d="M114.15,48.69V46.81a6.73,6.73,0,0,1,2.34-5.36,9.21,9.21,0,0,1,6.22-2,8.94,8.94,0,0,1,5,1.26,3.83,3.83,0,0,1,1.92,3.3,3.17,3.17,0,0,1-1.4,2.73,6.39,6.39,0,0,1-3.78,1,6.14,6.14,0,0,1-3.54-.88,2.81,2.81,0,0,1-1.26-2.42,2.34,2.34,0,0,1,.84-1.87,3.49,3.49,0,0,1,2.31-.71.31.31,0,0,0,.09-.19,1.54,1.54,0,0,0,0-.19q0-.54-.81-.54a3.62,3.62,0,0,0-3.61,3.61c0,1.87,1.16,3.25,3.46,4.15h5.22c.31,0,.46.13.46.38v.69c0,.26-.15.39-.46.39h-3.84a1.94,1.94,0,0,1,.58.71,3,3,0,0,1,.15,1.09V67a1.26,1.26,0,0,1-.29.94,1.42,1.42,0,0,1-1,.29h-7.3a1.45,1.45,0,0,1-1-.29,1.31,1.31,0,0,1-.28-.94V50.15h-2.58c-.3,0-.46-.13-.46-.39v-.69c0-.25.16-.38.46-.38Z"/><path d="M135.38,59.33c0,.59.5,1.13,1.5,1.63a7.35,7.35,0,0,0,3.34.75,7.91,7.91,0,0,0,6-2.46,2.05,2.05,0,0,1,.33-.29.51.51,0,0,1,.28-.06h.46a.38.38,0,0,1,.37.2,1.71,1.71,0,0,1,.1.69,8,8,0,0,1-1.29,4.39,9.33,9.33,0,0,1-3.65,3.25,11.23,11.23,0,0,1-5.28,1.23,12.19,12.19,0,0,1-5.61-1.27,9.94,9.94,0,0,1-4-3.61,9.75,9.75,0,0,1-1.48-5.34,10,10,0,0,1,1.38-5.26,9.82,9.82,0,0,1,3.94-3.63,12.82,12.82,0,0,1,6-1.32,12.53,12.53,0,0,1,4.63.81,7.44,7.44,0,0,1,3.24,2.3,5.37,5.37,0,0,1,1.19,3.46,5.31,5.31,0,0,1-1.8,4.12,6.57,6.57,0,0,1-4.57,1.64A5.87,5.87,0,0,1,136,58.71a.58.58,0,0,0-.41.17A.64.64,0,0,0,135.38,59.33Zm1.15-2.65a.75.75,0,0,0,.62.3c.46,0,.69-.25.69-.76V50.76c0-.51-.23-.76-.69-.76a.75.75,0,0,0-.62.3Z"/><path d="M154,48.69a5.88,5.88,0,0,1,3,.67,3.49,3.49,0,0,1,1.55,2.09,6,6,0,0,1,2.4-2.4,7.08,7.08,0,0,1,3.44-.82,5.33,5.33,0,0,1,4.22,1.65,6.8,6.8,0,0,1,1.46,4.68V67a1.26,1.26,0,0,1-.29.94,1.42,1.42,0,0,1-1,.29h-6.92a1.42,1.42,0,0,1-1-.29,1.26,1.26,0,0,1-.29-.94V53.76a1.22,1.22,0,0,0-.19-.69.63.63,0,0,0-.54-.27.68.68,0,0,0-.65.31V67a1.31,1.31,0,0,1-.29.94,1.43,1.43,0,0,1-1,.29H151a1.43,1.43,0,0,1-1-.29,1.31,1.31,0,0,1-.29-.94V53.41a4.48,4.48,0,0,0-.38-2A3.68,3.68,0,0,0,147.9,50a.9.9,0,0,1-.33-.25.44.44,0,0,1-.06-.25v-.46c0-.25.16-.38.47-.38Z"/><path d="M184.07,45.31a4.45,4.45,0,0,0-.38-2.05,3.68,3.68,0,0,0-1.42-1.33.9.9,0,0,1-.33-.25.46.46,0,0,1-.06-.25V41c0-.25.16-.38.46-.38h9.95a1.41,1.41,0,0,1,1,.29,1.29,1.29,0,0,1,.28.94V62.4a2.16,2.16,0,0,0,.12.88.38.38,0,0,0,.38.23.51.51,0,0,0,.5-.31,4.46,4.46,0,0,0,.27-1.19,2.46,2.46,0,0,1,.16-.78.31.31,0,0,1,.3-.14H196a.33.33,0,0,1,.32.27,3,3,0,0,1,.1.88A6.6,6.6,0,0,1,194.8,67a6,6,0,0,1-4.55,1.67,5.79,5.79,0,0,1-5.53-3.19,5.52,5.52,0,0,1-5.22,3.19,6.08,6.08,0,0,1-5.28-2.75q-1.91-2.74-1.9-7.62t1.92-7.41a6.25,6.25,0,0,1,5.38-2.65,6,6,0,0,1,4.45,1.61Zm-1.38,17.86c0,.61.24.92.73.92a.75.75,0,0,0,.65-.31V51.92a.75.75,0,0,0-.65-.31c-.49,0-.73.31-.73.92Z"/><path d="M214.48,68.66A5.74,5.74,0,0,1,209,65.47a6,6,0,0,1-2.17,2.42,6.08,6.08,0,0,1-3.17.77,6.59,6.59,0,0,1-4.26-1.31,4.23,4.23,0,0,1-1.61-3.45,3.66,3.66,0,0,1,1.32-3,8.26,8.26,0,0,1,4.09-1.48q7.07-.91,7.07-5.34A4.28,4.28,0,0,0,209,51.05a3.9,3.9,0,0,0-2.92-1.29c-.54,0-.8.18-.8.54a.82.82,0,0,0,.11.39,3.74,3.74,0,0,1,2.65,1,3.2,3.2,0,0,1,1,2.45A3.57,3.57,0,0,1,207.59,57a6,6,0,0,1-3.78,1.15A5.59,5.59,0,0,1,200.08,57a3.85,3.85,0,0,1-1.38-3.09,4.7,4.7,0,0,1,2.5-4.13,12.4,12.4,0,0,1,6.6-1.55q4.92,0,7.47,2.38t2.55,7v4.8a2.16,2.16,0,0,0,.12.88.38.38,0,0,0,.38.23.51.51,0,0,0,.5-.31,4.46,4.46,0,0,0,.27-1.19,3,3,0,0,1,.15-.78.34.34,0,0,1,.31-.14h.65a.34.34,0,0,1,.33.27,3,3,0,0,1,.1.88A6.64,6.64,0,0,1,219,67,6,6,0,0,1,214.48,68.66Zm-6.18-8.3a.73.73,0,0,0-.61-.3c-.44,0-.66.25-.66.76v2.46c0,.51.22.77.66.77a.71.71,0,0,0,.61-.31Z"/><path d="M240.94,68.66q-5.41,0-8.24-2.61t-2.82-7.61c0-3.32.94-5.86,2.82-7.6s4.63-2.61,8.24-2.61,6.35.87,8.24,2.61,2.82,4.28,2.82,7.6-.94,5.87-2.82,7.61S244.55,68.66,240.94,68.66Zm0-1.77c.46,0,.69-.34.69-1V51c0-.69-.23-1-.69-1s-.69.34-.69,1V65.85C240.25,66.55,240.48,66.89,240.94,66.89Z"/><path d="M285.44,60.9a6.62,6.62,0,0,1-3.18,5.9c-2.13,1.37-5.17,2-9.14,2q-5.53,0-8.39-1.67a5.3,5.3,0,0,1-2.86-4.86,4.06,4.06,0,0,1,1.42-3.2,5.27,5.27,0,0,1,3.65-1.25A6.69,6.69,0,0,1,271,59a3.6,3.6,0,0,1,1.52,3,2.86,2.86,0,0,1-1,2.31,4.52,4.52,0,0,1-2.8.92.7.7,0,0,0-.23.5.46.46,0,0,0,.25.42,1.22,1.22,0,0,0,.63.15,4.5,4.5,0,0,0,3.21-1.22,4.08,4.08,0,0,0,1.29-3.08,4.55,4.55,0,0,0-.62-2.47,5.3,5.3,0,0,0-2-1.75,20,20,0,0,0-3.7-1.5,8.11,8.11,0,0,1-4-2.42A6,6,0,0,1,262.25,50a6.33,6.33,0,0,1,1.44-4.09A9.65,9.65,0,0,1,267.84,43a17.61,17.61,0,0,1,6.31-1c3.38,0,6,.57,7.93,1.73a5.34,5.34,0,0,1,2.86,4.8,4,4,0,0,1-1.47,3.2A5.74,5.74,0,0,1,279.65,53a6.14,6.14,0,0,1-3.9-1.15,3.66,3.66,0,0,1-1.48-3,2.84,2.84,0,0,1,1-2.3,4.52,4.52,0,0,1,2.8-.92.67.67,0,0,0,.23-.5.46.46,0,0,0-.25-.42,1.2,1.2,0,0,0-.63-.16,4.63,4.63,0,0,0-2.25.56,4.3,4.3,0,0,0-1.63,1.54,4,4,0,0,0-.61,2.2,4.34,4.34,0,0,0,1.42,3.4,12.29,12.29,0,0,0,4.87,2.25,10.22,10.22,0,0,1,4.71,2.46A5.52,5.52,0,0,1,285.44,60.9Z"/><path d="M297.89,42.66a1.25,1.25,0,0,1,1,.31,1.44,1.44,0,0,1,.29,1V65.85c0,.7.25,1,.73,1s.73-.34.73-1V44a1.49,1.49,0,0,1,.29-1,1.28,1.28,0,0,1,1-.31h8.49a1.41,1.41,0,0,1,1,.29,1.21,1.21,0,0,1,.31.94V57.68c0,3.68-1,6.47-3,8.35s-4.93,2.82-8.82,2.82-6.79-.94-8.79-2.82-3-4.67-3-8.35V47a4.7,4.7,0,0,0-.15-1.4,1.93,1.93,0,0,0-.54-.81,10.58,10.58,0,0,0-1.3-1,.38.38,0,0,1-.2-.34V43c0-.25.16-.38.47-.38Z"/><path d="M337.48,60.9a6.62,6.62,0,0,1-3.19,5.9c-2.13,1.37-5.17,2-9.14,2-3.69,0-6.48-.56-8.39-1.67a5.3,5.3,0,0,1-2.86-4.86,4.06,4.06,0,0,1,1.42-3.2A5.29,5.29,0,0,1,319,57.87,6.75,6.75,0,0,1,323.06,59a3.61,3.61,0,0,1,1.51,3,2.86,2.86,0,0,1-1,2.31,4.52,4.52,0,0,1-2.8.92.7.7,0,0,0-.23.5.46.46,0,0,0,.25.42,1.22,1.22,0,0,0,.63.15,4.5,4.5,0,0,0,3.21-1.22,4.08,4.08,0,0,0,1.29-3.08,4.55,4.55,0,0,0-.62-2.47,5.3,5.3,0,0,0-2-1.75,19.73,19.73,0,0,0-3.7-1.5,8,8,0,0,1-4-2.42A5.93,5.93,0,0,1,314.28,50a6.33,6.33,0,0,1,1.44-4.09A9.65,9.65,0,0,1,319.87,43a17.63,17.63,0,0,1,6.32-1,15.3,15.3,0,0,1,7.93,1.73,5.36,5.36,0,0,1,2.86,4.8,4,4,0,0,1-1.48,3.2A5.74,5.74,0,0,1,331.68,53a6.14,6.14,0,0,1-3.9-1.15,3.66,3.66,0,0,1-1.48-3,2.84,2.84,0,0,1,1-2.3,4.52,4.52,0,0,1,2.8-.92.67.67,0,0,0,.23-.5.46.46,0,0,0-.25-.42,1.17,1.17,0,0,0-.63-.16,4.63,4.63,0,0,0-2.25.56,4.3,4.3,0,0,0-1.63,1.54,4,4,0,0,0-.61,2.2,4.34,4.34,0,0,0,1.42,3.4,12.29,12.29,0,0,0,4.87,2.25A10.22,10.22,0,0,1,336,56.91,5.53,5.53,0,0,1,337.48,60.9Z"/><path d="M74.52,98.87a1.34,1.34,0,0,1,1,.3,1.52,1.52,0,0,1,.28,1v22a.82.82,0,0,0,.7.31c.43,0,.65-.28.65-.84V114.3A1.14,1.14,0,0,1,78.47,113h4.72a4,4,0,0,1,3.19,1.17,5.31,5.31,0,0,1,1,3.59v5.34a1.49,1.49,0,0,1-.29,1,1.28,1.28,0,0,1-1,.31H66.76a1.28,1.28,0,0,1-1-.31,1.49,1.49,0,0,1-.29-1V103.24a4.75,4.75,0,0,0-.15-1.4,2,2,0,0,0-.54-.8,9.64,9.64,0,0,0-1.3-1,.39.39,0,0,1-.2-.35v-.46c0-.26.16-.38.46-.38Z"/><path d="M97.79,104.89a1.42,1.42,0,0,1,1,.29,1.26,1.26,0,0,1,.29.94V118.6a2.21,2.21,0,0,0,.12.89.39.39,0,0,0,.38.23.49.49,0,0,0,.48-.27,5.18,5.18,0,0,0,.29-1.23,3,3,0,0,1,.15-.79.33.33,0,0,1,.31-.13h.65a.34.34,0,0,1,.33.27,3.14,3.14,0,0,1,.1.92,5.77,5.77,0,0,1-6.38,6.37A6,6,0,0,1,91,123.19a6.66,6.66,0,0,1-1.59-4.78v-8.79a4.38,4.38,0,0,0-.39-2.06,3.67,3.67,0,0,0-1.42-1.32.85.85,0,0,1-.32-.25.49.49,0,0,1-.06-.25v-.46c0-.26.15-.39.46-.39ZM89,99.52a3.32,3.32,0,0,1,1.35-2.77,5.76,5.76,0,0,1,3.61-1,5.86,5.86,0,0,1,3.63,1,3.3,3.3,0,0,1,1.36,2.77,3.24,3.24,0,0,1-1.36,2.72,6.88,6.88,0,0,1-7.24,0A3.24,3.24,0,0,1,89,99.52Z"/><path d="M108,104.89a5.87,5.87,0,0,1,3,.68,3.44,3.44,0,0,1,1.55,2.09,6,6,0,0,1,2.4-2.4,7.09,7.09,0,0,1,3.44-.83,5.33,5.33,0,0,1,4.22,1.65,6.9,6.9,0,0,1,1.46,4.69v12.4a1.25,1.25,0,0,1-.29.94,1.37,1.37,0,0,1-1,.29h-6.92a1.37,1.37,0,0,1-1-.29,1.25,1.25,0,0,1-.29-.94V110a1.22,1.22,0,0,0-.19-.69.63.63,0,0,0-.54-.27.7.7,0,0,0-.65.31v13.86a1.29,1.29,0,0,1-.29.94,1.38,1.38,0,0,1-1,.29h-6.91a1.38,1.38,0,0,1-1-.29,1.29,1.29,0,0,1-.29-.94V109.62a4.53,4.53,0,0,0-.38-2.06,3.74,3.74,0,0,0-1.42-1.32,1,1,0,0,1-.33-.25.49.49,0,0,1-.06-.25v-.46c0-.26.16-.39.47-.39Z"/><path d="M127.2,101.52a4.5,4.5,0,0,0-.38-2.06,3.74,3.74,0,0,0-1.42-1.32,1.2,1.2,0,0,1-.33-.25.49.49,0,0,1-.06-.25v-.46c0-.26.16-.39.46-.39h9.95a1.46,1.46,0,0,1,1,.29,1.31,1.31,0,0,1,.28.94v8.76a6.33,6.33,0,0,1,5.23-2.35,5.33,5.33,0,0,1,4.22,1.65,6.9,6.9,0,0,1,1.46,4.69v12.4a1.29,1.29,0,0,1-.29.94,1.38,1.38,0,0,1-1,.29h-6.91a1.41,1.41,0,0,1-1-.29,1.29,1.29,0,0,1-.28-.94V110a1.15,1.15,0,0,0-.2-.69.6.6,0,0,0-.53-.27.73.73,0,0,0-.66.31v13.86a1.29,1.29,0,0,1-.28.94,1.41,1.41,0,0,1-1,.29h-6.91a1.38,1.38,0,0,1-1-.29,1.29,1.29,0,0,1-.29-.94Z"/><path d="M166.37,124.86a5.73,5.73,0,0,1-5.53-3.19,6,6,0,0,1-2.17,2.42,6,6,0,0,1-3.17.77,6.56,6.56,0,0,1-4.26-1.3,4.22,4.22,0,0,1-1.61-3.46,3.68,3.68,0,0,1,1.32-3,8.22,8.22,0,0,1,4.09-1.47q7.07-.93,7.07-5.34a4.24,4.24,0,0,0-1.23-3A3.9,3.9,0,0,0,158,106q-.81,0-.81.54a.71.71,0,0,0,.12.38,3.75,3.75,0,0,1,2.65,1,3.2,3.2,0,0,1,1,2.46,3.56,3.56,0,0,1-1.47,2.92,6,6,0,0,1-3.79,1.15,5.56,5.56,0,0,1-3.72-1.17,3.85,3.85,0,0,1-1.38-3.09,4.7,4.7,0,0,1,2.49-4.13,12.37,12.37,0,0,1,6.61-1.56c3.27,0,5.76.8,7.47,2.38s2.55,3.92,2.55,7v4.8a2.47,2.47,0,0,0,.11.89.41.41,0,0,0,.39.23.54.54,0,0,0,.5-.31,4.57,4.57,0,0,0,.27-1.19,3,3,0,0,1,.15-.79c.05-.09.15-.13.31-.13h.65a.35.35,0,0,1,.33.27,3,3,0,0,1,.09.88,6.59,6.59,0,0,1-1.59,4.74A6,6,0,0,1,166.37,124.86Zm-6.18-8.29a.73.73,0,0,0-.62-.31c-.43,0-.65.26-.65.77v2.46c0,.51.22.76.65.76a.75.75,0,0,0,.62-.3Z"/><path d="M196.4,98.87c3,0,5.21.48,6.74,1.45a4.77,4.77,0,0,1,2.28,4.27,5.25,5.25,0,0,1-.61,2.55,5.34,5.34,0,0,1-1.81,1.92,8,8,0,0,1-2.92,1.13,8.57,8.57,0,0,1,5,2,5.63,5.63,0,0,1,1.73,4.34,6.78,6.78,0,0,1-2.84,5.74,12.44,12.44,0,0,1-7.64,2.13H184.69a1.27,1.27,0,0,1-1-.31,1.44,1.44,0,0,1-.29-1V103.24a4.37,4.37,0,0,0-.16-1.4,2,2,0,0,0-.53-.8,10.63,10.63,0,0,0-1.31-1,.39.39,0,0,1-.19-.35v-.46c0-.26.15-.38.46-.38Zm-2.69,10.56h.5a.85.85,0,0,0,1-1v-6.8A1.22,1.22,0,0,0,195,101a.63.63,0,0,0-.54-.27.83.83,0,0,0-.73.31Zm0,1.72v11.1a.83.83,0,0,0,.73.31.63.63,0,0,0,.54-.27,1.22,1.22,0,0,0,.19-.69v-9.49q0-1-1.08-1Z"/><path d="M208.45,101.52a4.5,4.5,0,0,0-.38-2.06,3.74,3.74,0,0,0-1.42-1.32,1.2,1.2,0,0,1-.33-.25.49.49,0,0,1-.06-.25v-.46c0-.26.16-.39.47-.39h10.13a1.43,1.43,0,0,1,1,.29,1.31,1.31,0,0,1,.29.94V118.6a2.47,2.47,0,0,0,.11.89.41.41,0,0,0,.39.23.49.49,0,0,0,.48-.27,5.76,5.76,0,0,0,.29-1.23,3,3,0,0,1,.15-.79c0-.09.15-.13.31-.13h.65a.35.35,0,0,1,.33.27,3.23,3.23,0,0,1,.09.92,5.76,5.76,0,0,1-6.37,6.37,6,6,0,0,1-4.55-1.67,6.62,6.62,0,0,1-1.6-4.78Z"/><path d="M239.06,124.86a5.73,5.73,0,0,1-5.53-3.19,6,6,0,0,1-2.17,2.42,6,6,0,0,1-3.17.77,6.55,6.55,0,0,1-4.26-1.3,4.23,4.23,0,0,1-1.62-3.46,3.68,3.68,0,0,1,1.33-3,8.22,8.22,0,0,1,4.09-1.47q7.07-.93,7.07-5.34a4.24,4.24,0,0,0-1.23-3,3.91,3.91,0,0,0-2.92-1.29q-.81,0-.81.54a.71.71,0,0,0,.12.38,3.75,3.75,0,0,1,2.65,1,3.2,3.2,0,0,1,1,2.46,3.54,3.54,0,0,1-1.48,2.92,5.93,5.93,0,0,1-3.78,1.15,5.56,5.56,0,0,1-3.72-1.17,3.86,3.86,0,0,1-1.39-3.09,4.71,4.71,0,0,1,2.5-4.13,12.37,12.37,0,0,1,6.61-1.56c3.27,0,5.76.8,7.46,2.38s2.56,3.92,2.56,7v4.8a2.47,2.47,0,0,0,.11.89.41.41,0,0,0,.39.23.54.54,0,0,0,.5-.31,4.57,4.57,0,0,0,.27-1.19,3,3,0,0,1,.15-.79c.05-.09.15-.13.31-.13h.65a.35.35,0,0,1,.33.27,3,3,0,0,1,.09.88,6.59,6.59,0,0,1-1.59,4.74A6,6,0,0,1,239.06,124.86Zm-3.5-32.29a3.77,3.77,0,0,1,2.75,1,3.68,3.68,0,0,1,1.05,2.73,5.79,5.79,0,0,1-1,3.25,7.61,7.61,0,0,1-2.83,2.47,8.34,8.34,0,0,1-4,1,6.08,6.08,0,0,1-3.22-.8c-.29-.16-.43-.31-.43-.46a.48.48,0,0,1,.12-.31l.23-.39a.34.34,0,0,1,.27-.15.86.86,0,0,1,.34.12l.16.07a2.5,2.5,0,0,0,1.23.35,1.25,1.25,0,0,0,1.07-.52,2.37,2.37,0,0,0,.39-1.44,7,7,0,0,0-.06-.94c0-.29-.09-.6-.14-.9a6.91,6.91,0,0,1-.07-1.08,3.94,3.94,0,0,1,1.17-2.9A4.07,4.07,0,0,1,235.56,92.57Zm-2.68,24a.73.73,0,0,0-.62-.31c-.44,0-.65.26-.65.77v2.46c0,.51.21.76.65.76a.75.75,0,0,0,.62-.3Z"/><path d="M86.15,150.65a1.32,1.32,0,0,1,1,.31,1.52,1.52,0,0,1,.29,1v5.49a5.31,5.31,0,0,1-1,3.59,4,4,0,0,1-3.19,1.17H78.47a1.14,1.14,0,0,1-1.34-1.34v-7.57c0-.56-.22-.84-.65-.84a.84.84,0,0,0-.7.3v10.6h7.3c.31,0,.46.14.46.43v1c0,.26-.15.39-.46.39h-7.3v9.64a1.49,1.49,0,0,1-.28,1,1.3,1.3,0,0,1-1,.31H66.76a1.28,1.28,0,0,1-1-.31,1.49,1.49,0,0,1-.29-1V155a4.75,4.75,0,0,0-.15-1.4,2.06,2.06,0,0,0-.54-.81,9.77,9.77,0,0,0-1.3-1,.39.39,0,0,1-.2-.35V151c0-.26.16-.39.46-.39Z"/><path d="M89.76,153.3a4.48,4.48,0,0,0-.38-2.05A3.67,3.67,0,0,0,88,149.93a1.2,1.2,0,0,1-.33-.25.49.49,0,0,1-.06-.25V149c0-.25.16-.38.46-.38H98.17a1.43,1.43,0,0,1,1,.29,1.29,1.29,0,0,1,.29.94v20.58a2.17,2.17,0,0,0,.11.88.41.41,0,0,0,.39.24.49.49,0,0,0,.48-.27,6,6,0,0,0,.28-1.23,2.82,2.82,0,0,1,.16-.79.31.31,0,0,1,.3-.13h.66a.33.33,0,0,1,.32.26,2.89,2.89,0,0,1,.1.93,5.76,5.76,0,0,1-6.37,6.37A6,6,0,0,1,91.35,175a6.66,6.66,0,0,1-1.59-4.78Z"/><path d="M120.37,176.65a5.73,5.73,0,0,1-5.53-3.19,5.5,5.5,0,0,1-5.34,3.19,6.55,6.55,0,0,1-4.26-1.3,4.23,4.23,0,0,1-1.62-3.46,3.65,3.65,0,0,1,1.33-3,8.18,8.18,0,0,1,4.09-1.48q7.06-.92,7.06-5.33a4.28,4.28,0,0,0-1.23-3.06,3.92,3.92,0,0,0-2.91-1.28q-.81,0-.81.54a.82.82,0,0,0,.11.38,3.74,3.74,0,0,1,2.65,1,3.21,3.21,0,0,1,1,2.46,3.56,3.56,0,0,1-1.48,2.92,6,6,0,0,1-3.78,1.15A5.56,5.56,0,0,1,106,165a3.83,3.83,0,0,1-1.39-3.09,4.68,4.68,0,0,1,2.5-4.13,12.3,12.3,0,0,1,6.6-1.56c3.28,0,5.77.8,7.47,2.38s2.56,3.92,2.56,7v4.8a2.17,2.17,0,0,0,.11.88.41.41,0,0,0,.39.24.51.51,0,0,0,.49-.31A3.86,3.86,0,0,0,125,170a2.82,2.82,0,0,1,.16-.79.31.31,0,0,1,.3-.13h.66a.33.33,0,0,1,.32.26,2.73,2.73,0,0,1,.1.89,6.59,6.59,0,0,1-1.59,4.74A6,6,0,0,1,120.37,176.65Zm-6.19-8.29a.71.71,0,0,0-.61-.31c-.44,0-.65.26-.65.77v2.45c0,.52.21.77.65.77a.73.73,0,0,0,.61-.3Z"/><path d="M140.64,153.38a2.32,2.32,0,0,1,.79-1.8,2.77,2.77,0,0,1,2-.73,2.74,2.74,0,0,1,1.34.3.6.6,0,0,0,.19-.46c0-.23-.15-.41-.46-.55a3,3,0,0,0-1.23-.21,3.77,3.77,0,0,0-2.65,1,3.26,3.26,0,0,0-1.07,2.5,3.33,3.33,0,0,0,.73,2.07,5.47,5.47,0,0,0,2.11,1.61,12.13,12.13,0,0,1,4.34,3.15,6.67,6.67,0,0,1,1.3,4.19,8,8,0,0,1-1.24,4.4,8.37,8.37,0,0,1-3.6,3,12.71,12.71,0,0,1-5.45,1.09,12.13,12.13,0,0,1-6.6-1.69.93.93,0,0,0-.31.66c0,.36.3.7.9,1a8.81,8.81,0,0,0,2.52.83,17.38,17.38,0,0,0,3.49.33c1,0,2-.09,2.88-.19s1.72-.17,2.46-.2a5.82,5.82,0,0,1,4,1.27,4.46,4.46,0,0,1,1.44,3.53,5.43,5.43,0,0,1-1.32,3.63,8.48,8.48,0,0,1-3.82,2.42,17.91,17.91,0,0,1-5.88.86,16.52,16.52,0,0,1-6.56-1.09c-1.67-.73-2.5-1.68-2.5-2.86a2.67,2.67,0,0,1,.69-1.77,5.75,5.75,0,0,1-1.76-4.37,6.11,6.11,0,0,1,.67-2.85,5.86,5.86,0,0,1,1.9-2.15,7.45,7.45,0,0,1-2.54-5.76,7.58,7.58,0,0,1,1.23-4.2,8.7,8.7,0,0,1,3.5-3,11.39,11.39,0,0,1,5.14-1.13l.69,0a5.46,5.46,0,0,1,.69.1,5.5,5.5,0,0,1-.49-1.19,5.77,5.77,0,0,1-.23-1.65,4.43,4.43,0,0,1,1.61-3.54,6,6,0,0,1,4.07-1.38,5.81,5.81,0,0,1,3.72,1.13,3.59,3.59,0,0,1,1.42,2.94,3.28,3.28,0,0,1-1.19,2.63,5,5,0,0,1-5.78.19A2.53,2.53,0,0,1,140.64,153.38Zm1.69,28.19a13.76,13.76,0,0,1-5.18,1,12.4,12.4,0,0,1-6.57-1.69.75.75,0,0,0-.31.65c0,.56.71,1.07,2.13,1.52a16.41,16.41,0,0,0,4.86.67,14.91,14.91,0,0,0,3.73-.42c1.07-.29,1.61-.67,1.61-1.16A.6.6,0,0,0,142.33,181.57Zm-4.65-10.37c.46,0,.69-.35.69-1V159c0-.69-.23-1-.69-1s-.69.34-.69,1v11.14C137,170.85,137.22,171.2,137.68,171.2Z"/><path d="M70.39,213a2.87,2.87,0,0,0-2.09.82,2.72,2.72,0,0,0-.85,2,3.17,3.17,0,0,0,1.11,2.49,4.06,4.06,0,0,0,2.83,1,4.9,4.9,0,0,0,1.91-.38,4.09,4.09,0,0,0,1.47-1.06,1,1,0,0,1,.17-.18.21.21,0,0,1,.13,0h.29a.22.22,0,0,1,.2.11,1.14,1.14,0,0,1,.13.41,4.54,4.54,0,0,1,.07.86,7,7,0,0,1-.74,3.24,5.83,5.83,0,0,1-2.12,2.31,5.67,5.67,0,0,1-3.13.87,6.33,6.33,0,0,1-3.25-.85,6.13,6.13,0,0,1-2.34-2.42,7.67,7.67,0,0,1-.09-7,5.82,5.82,0,0,1,2.25-2.34,6.55,6.55,0,0,1,3.38-.85,6.68,6.68,0,0,1,2.59.47,4.27,4.27,0,0,1,1.83,1.33,3.09,3.09,0,0,1,.68,2,2.54,2.54,0,0,1-.92,2.06,3.63,3.63,0,0,1-2.44.78,3.9,3.9,0,0,1-1.68-.36,3,3,0,0,1-1.21-1,2.51,2.51,0,0,1-.45-1.47,2.08,2.08,0,0,1,.71-1.65,2.86,2.86,0,0,1,1.92-.62.33.33,0,0,0,.12-.25.28.28,0,0,0-.14-.24A.59.59,0,0,0,70.39,213Z"/><path d="M84.52,225.31a2.89,2.89,0,0,1-2.77-1.59,3,3,0,0,1-1.08,1.21,3.11,3.11,0,0,1-1.58.38,3.28,3.28,0,0,1-2.13-.65,2.12,2.12,0,0,1-.81-1.73,1.84,1.84,0,0,1,.66-1.49,4.14,4.14,0,0,1,2-.74q3.52-.45,3.53-2.67a2.14,2.14,0,0,0-.62-1.52,1.94,1.94,0,0,0-1.46-.65c-.26,0-.4.09-.4.27a.39.39,0,0,0,.06.2,1.89,1.89,0,0,1,1.32.47,1.6,1.6,0,0,1,.52,1.23,1.75,1.75,0,0,1-.74,1.46,2.94,2.94,0,0,1-1.89.58,2.78,2.78,0,0,1-1.86-.59,1.92,1.92,0,0,1-.69-1.54,2.34,2.34,0,0,1,1.25-2.07,6.25,6.25,0,0,1,3.3-.77,5.24,5.24,0,0,1,3.73,1.19,4.55,4.55,0,0,1,1.28,3.49v2.4a1,1,0,0,0,.06.44.2.2,0,0,0,.19.12.26.26,0,0,0,.25-.16,1.92,1.92,0,0,0,.13-.59,1.31,1.31,0,0,1,.08-.39.16.16,0,0,1,.15-.07h.33a.16.16,0,0,1,.16.13,1.22,1.22,0,0,1,0,.44,3.28,3.28,0,0,1-.8,2.38A3,3,0,0,1,84.52,225.31Zm-3.09-4.15a.37.37,0,0,0-.31-.15c-.22,0-.33.13-.33.38v1.23q0,.39.33.39a.36.36,0,0,0,.31-.16Z"/><path d="M90.43,215.33a3,3,0,0,1,1.51.33,1.76,1.76,0,0,1,.78,1.05,3.14,3.14,0,0,1,1.18-1.19,3.26,3.26,0,0,1,1.64-.42,2.86,2.86,0,0,1,1.52.39,2.37,2.37,0,0,1,.94,1.14,2.88,2.88,0,0,1,1.14-1.13,3.4,3.4,0,0,1,1.66-.4,2.59,2.59,0,0,1,2,.8,3.55,3.55,0,0,1,.7,2.36v6.21a.65.65,0,0,1-.15.47.72.72,0,0,1-.51.14H99.63a.76.76,0,0,1-.51-.14.65.65,0,0,1-.14-.47v-6.61a.57.57,0,0,0-.1-.34.31.31,0,0,0-.27-.14.35.35,0,0,0-.32.15v6.94a.65.65,0,0,1-.15.47.72.72,0,0,1-.51.14H94.37a.76.76,0,0,1-.51-.14.65.65,0,0,1-.14-.47v-6.61a.57.57,0,0,0-.1-.34.31.31,0,0,0-.27-.14.37.37,0,0,0-.33.15v6.94a.65.65,0,0,1-.14.47.72.72,0,0,1-.51.14H89.11a.74.74,0,0,1-.51-.14.65.65,0,0,1-.14-.47v-6.78a2.18,2.18,0,0,0-.2-1,1.7,1.7,0,0,0-.71-.66.38.38,0,0,1-.16-.13.21.21,0,0,1,0-.12v-.23c0-.13.08-.19.23-.19Z"/><path d="M109.25,215.33a.71.71,0,0,1,.51.14.68.68,0,0,1,.14.47v6.24a1,1,0,0,0,.06.44.2.2,0,0,0,.19.12.24.24,0,0,0,.24-.14,2.71,2.71,0,0,0,.15-.61,1.47,1.47,0,0,1,.07-.39.17.17,0,0,1,.16-.07h.32c.08,0,.13,0,.17.13a1.71,1.71,0,0,1,0,.46,2.87,2.87,0,0,1-3.18,3.19,3,3,0,0,1-2.28-.83,3.36,3.36,0,0,1-.8-2.4v-4.39a2.2,2.2,0,0,0-.19-1,1.76,1.76,0,0,0-.71-.66.38.38,0,0,1-.16-.13.21.21,0,0,1,0-.12v-.23c0-.13.08-.19.23-.19Zm-4.42-2.69a1.66,1.66,0,0,1,.67-1.38,3.41,3.41,0,0,1,3.62,0,1.71,1.71,0,0,1,0,2.74,2.88,2.88,0,0,1-1.81.52,2.92,2.92,0,0,1-1.81-.51A1.66,1.66,0,0,1,104.83,212.64Z"/><path d="M116.49,222.87a1.13,1.13,0,0,1-.35.84,1.41,1.41,0,0,1-.94.37.43.43,0,0,0-.08.21c0,.17.12.25.35.25a1.43,1.43,0,0,0,1.1-.53,1.71,1.71,0,0,0,.49-1.22,1.54,1.54,0,0,0-.53-1.23,4.57,4.57,0,0,0-1.87-.76c-1.67-.39-2.51-1.2-2.51-2.46A2.65,2.65,0,0,1,113.6,216a7.57,7.57,0,0,1,3.92-.87,6.58,6.58,0,0,1,3.17.62,1.93,1.93,0,0,1,1.14,1.74,1.45,1.45,0,0,1-.6,1.22,2.69,2.69,0,0,1-1.65.45,3,3,0,0,1-1.69-.44,1.34,1.34,0,0,1-.65-1.16,1.1,1.1,0,0,1,.34-.83,1.43,1.43,0,0,1,.94-.37.42.42,0,0,0,.08-.22c0-.16-.12-.25-.35-.25a1.48,1.48,0,0,0-1.1.53,1.72,1.72,0,0,0-.49,1.22,1.51,1.51,0,0,0,.59,1.25,4.81,4.81,0,0,0,1.94.75,5.28,5.28,0,0,1,2.31.91,2.05,2.05,0,0,1,.69,1.66,2.55,2.55,0,0,1-1.35,2.32,7.67,7.67,0,0,1-3.89.81,8.76,8.76,0,0,1-3.68-.65c-.91-.44-1.37-1-1.37-1.73a1.42,1.42,0,0,1,.6-1.21,2.78,2.78,0,0,1,1.65-.44,3,3,0,0,1,1.68.44A1.33,1.33,0,0,1,116.49,222.87Z"/><path d="M131,225.31a2.87,2.87,0,0,1-2.76-1.59,2.75,2.75,0,0,1-2.67,1.59,3.28,3.28,0,0,1-2.13-.65,2.12,2.12,0,0,1-.81-1.73,1.84,1.84,0,0,1,.66-1.49,4.18,4.18,0,0,1,2-.74q3.53-.45,3.53-2.67a2.14,2.14,0,0,0-.62-1.52,1.92,1.92,0,0,0-1.45-.65c-.27,0-.41.09-.41.27a.39.39,0,0,0,.06.2,1.89,1.89,0,0,1,1.32.47,1.6,1.6,0,0,1,.52,1.23,1.75,1.75,0,0,1-.74,1.46,2.94,2.94,0,0,1-1.89.58,2.78,2.78,0,0,1-1.86-.59,1.92,1.92,0,0,1-.69-1.54,2.36,2.36,0,0,1,1.25-2.07,6.25,6.25,0,0,1,3.3-.77,5.24,5.24,0,0,1,3.73,1.19,4.51,4.51,0,0,1,1.28,3.49v2.4a1,1,0,0,0,.06.44.2.2,0,0,0,.19.12.25.25,0,0,0,.25-.16,1.92,1.92,0,0,0,.13-.59,1.78,1.78,0,0,1,.08-.39.17.17,0,0,1,.16-.07h.32a.16.16,0,0,1,.16.13,1.22,1.22,0,0,1,.05.44,3.32,3.32,0,0,1-.79,2.38A3,3,0,0,1,131,225.31ZM128,221.16a.37.37,0,0,0-.31-.15c-.22,0-.32.13-.32.38v1.23c0,.26.1.39.32.39a.36.36,0,0,0,.31-.16Z"/><path d="M146.06,212.31a6.35,6.35,0,0,1,3.36.73,2.37,2.37,0,0,1,1.15,2.13,2.69,2.69,0,0,1-.31,1.28,2.74,2.74,0,0,1-.9,1,4.28,4.28,0,0,1-1.46.57,4.25,4.25,0,0,1,2.49,1,2.83,2.83,0,0,1,.87,2.17,3.41,3.41,0,0,1-1.42,2.87,6.23,6.23,0,0,1-3.82,1.07H140.2a.67.67,0,0,1-.49-.15.75.75,0,0,1-.14-.52V214.5a2.34,2.34,0,0,0-.08-.7,1,1,0,0,0-.27-.4,5.59,5.59,0,0,0-.65-.49.19.19,0,0,1-.1-.18v-.23c0-.12.08-.19.23-.19Zm-1.35,5.28H145a.42.42,0,0,0,.48-.48v-3.4a.53.53,0,0,0-.1-.34.3.3,0,0,0-.26-.14.45.45,0,0,0-.37.16Zm0,.87V224a.42.42,0,0,0,.37.16.3.3,0,0,0,.26-.14.53.53,0,0,0,.1-.34v-4.74q0-.48-.54-.48Z"/><path d="M152.08,213.64a2.2,2.2,0,0,0-.19-1,1.76,1.76,0,0,0-.71-.66.47.47,0,0,1-.16-.13.21.21,0,0,1,0-.12v-.23c0-.13.08-.19.23-.19h5.07a.71.71,0,0,1,.51.14.68.68,0,0,1,.14.47v10.29a1,1,0,0,0,.06.44.2.2,0,0,0,.19.12.24.24,0,0,0,.24-.14,2.37,2.37,0,0,0,.14-.61,1.78,1.78,0,0,1,.08-.39.16.16,0,0,1,.15-.07h.33a.16.16,0,0,1,.16.13,1.32,1.32,0,0,1,.05.46,2.87,2.87,0,0,1-3.18,3.19,3,3,0,0,1-2.28-.83,3.36,3.36,0,0,1-.8-2.4Z"/><path d="M167.39,225.31a2.87,2.87,0,0,1-2.77-1.59,3.07,3.07,0,0,1-1.08,1.21,3.12,3.12,0,0,1-1.59.38,3.32,3.32,0,0,1-2.13-.65,2.12,2.12,0,0,1-.81-1.73,1.82,1.82,0,0,1,.67-1.49,4.14,4.14,0,0,1,2-.74c2.36-.3,3.53-1.19,3.53-2.67a2.13,2.13,0,0,0-.61-1.52,2,2,0,0,0-1.46-.65c-.27,0-.4.09-.4.27a.49.49,0,0,0,.05.2,1.93,1.93,0,0,1,1.33.47,1.6,1.6,0,0,1,.52,1.23,1.78,1.78,0,0,1-.74,1.46,2.94,2.94,0,0,1-1.89.58,2.78,2.78,0,0,1-1.86-.59,1.89,1.89,0,0,1-.7-1.54,2.36,2.36,0,0,1,1.25-2.07,6.25,6.25,0,0,1,3.3-.77,5.27,5.27,0,0,1,3.74,1.19,4.55,4.55,0,0,1,1.28,3.49v2.4a1.32,1.32,0,0,0,.05.44.21.21,0,0,0,.2.12.27.27,0,0,0,.25-.16,2.29,2.29,0,0,0,.13-.59,1,1,0,0,1,.08-.39s.07-.07.15-.07h.33a.17.17,0,0,1,.16.13,1.51,1.51,0,0,1,.05.44,3.32,3.32,0,0,1-.8,2.38A3,3,0,0,1,167.39,225.31Zm-1.75-16.15a1.9,1.9,0,0,1,1.37.52,1.84,1.84,0,0,1,.53,1.36,2.88,2.88,0,0,1-.51,1.63,3.88,3.88,0,0,1-1.41,1.24,4.19,4.19,0,0,1-2,.48A3,3,0,0,1,162,214c-.14-.07-.21-.15-.21-.23a.24.24,0,0,1,.06-.15l.11-.19a.17.17,0,0,1,.14-.08.49.49,0,0,1,.17.06l.07,0a1.32,1.32,0,0,0,.62.17.65.65,0,0,0,.54-.26,1.23,1.23,0,0,0,.19-.72,3.48,3.48,0,0,0,0-.47c0-.15,0-.3-.07-.45a4.12,4.12,0,0,1,0-.54,2,2,0,0,1,.59-1.45A2.07,2.07,0,0,1,165.64,209.16Zm-1.35,12a.36.36,0,0,0-.3-.15c-.22,0-.33.13-.33.38v1.23q0,.39.33.39a.34.34,0,0,0,.3-.16Z"/></svg>