<?xml version="1.0" encoding="utf-8"?>
<!-- Generator: Adobe Illustrator 24.0.1, SVG Export Plug-In . SVG Version: 6.00 Build 0)  -->
<svg version="1.1" id="Camada_1" xmlns="http://www.w3.org/2000/svg" xmlns:xlink="http://www.w3.org/1999/xlink" x="0px" y="0px"
	 viewBox="0 0 841.89 595.28" style="enable-background:new 0 0 841.89 595.28;" xml:space="preserve">
<g>
	<path d="M164.17,338.76h-19.79l-7.12-40.23h-0.19l-6.94,40.23h-19.88l-17.94-66.03h19.98l8.05,40.78h0.19l7.95-40.78h17.94
		l7.77,41.34h0.19l8.23-41.34h20.07L164.17,338.76z"/>
	<path d="M200.51,272.73h19.88l24.04,66.03h-21.09l-2.77-9.43h-20.99l-2.96,9.43h-20.44L200.51,272.73z M216.51,315.18l-5.92-20.35
		h-0.19l-6.38,20.35H216.51z"/>
	<path d="M290.58,297.33c-0.13-0.62-0.34-1.46-0.65-2.54c-0.31-1.08-0.86-2.14-1.66-3.19c-0.8-1.05-1.87-1.97-3.19-2.77
		c-1.33-0.8-3.04-1.2-5.13-1.2c-2.4,0-4.41,0.52-6.01,1.57c-1.6,1.05-2.88,2.44-3.84,4.16c-0.96,1.73-1.65,3.67-2.08,5.83
		c-0.43,2.16-0.65,4.35-0.65,6.57c0,2.22,0.22,4.41,0.65,6.57c0.43,2.16,1.12,4.1,2.08,5.83c0.95,1.73,2.23,3.11,3.84,4.16
		c1.6,1.05,3.61,1.57,6.01,1.57c1.72,0,3.19-0.28,4.39-0.83c1.2-0.55,2.22-1.33,3.05-2.31c0.83-0.99,1.51-2.16,2.03-3.51
		c0.52-1.36,0.94-2.8,1.25-4.35h19.98c0,3.33-0.66,6.63-1.99,9.9c-1.33,3.27-3.27,6.21-5.83,8.83c-2.56,2.62-5.72,4.73-9.48,6.33
		c-3.76,1.6-8.05,2.4-12.85,2.4c-5.36,0-10.11-0.89-14.24-2.68c-4.13-1.79-7.63-4.22-10.5-7.31c-2.87-3.08-5.04-6.73-6.52-10.96
		c-1.48-4.22-2.22-8.77-2.22-13.64c0-5.18,0.79-9.89,2.36-14.15c1.57-4.25,3.82-7.89,6.75-10.91c2.93-3.02,6.44-5.36,10.54-7.03
		c4.1-1.66,8.71-2.5,13.83-2.5c9.12,0.06,16.17,2.36,21.13,6.89c4.96,4.53,7.88,10.96,8.74,19.28H290.58z"/>
	<path d="M319.16,272.73h20.34v22.93h19.05v-22.93h20.35v66.03h-20.35v-26.17H339.5v26.17h-20.34V272.73z"/>
	<path d="M389.35,272.73h20.34v66.03h-20.34V272.73z"/>
	<path d="M435.59,289.66h-18.5v-16.92h57.34v16.92h-18.5v49.11h-20.35V289.66z"/>
	<path d="M482.38,291.83c1.6-4.22,3.87-7.86,6.8-10.91c2.93-3.05,6.46-5.44,10.59-7.17c4.13-1.73,8.69-2.59,13.69-2.59
		c4.99,0,9.56,0.86,13.69,2.59c4.13,1.73,7.66,4.11,10.59,7.17c2.93,3.05,5.19,6.69,6.8,10.91c1.6,4.22,2.4,8.86,2.4,13.92
		c0,5.06-0.8,9.7-2.4,13.92c-1.6,4.22-3.87,7.86-6.8,10.91c-2.93,3.05-6.46,5.44-10.59,7.17c-4.13,1.73-8.69,2.59-13.69,2.59
		c-4.99,0-9.56-0.86-13.69-2.59c-4.13-1.73-7.66-4.12-10.59-7.17c-2.93-3.05-5.2-6.69-6.8-10.91c-1.6-4.22-2.4-8.86-2.4-13.92
		C479.98,300.69,480.78,296.05,482.38,291.83z M501.66,314.81c0.89,2.34,1.99,4.18,3.28,5.5c1.3,1.33,2.71,2.25,4.25,2.77
		c1.54,0.53,2.96,0.79,4.26,0.79c1.29,0,2.71-0.26,4.25-0.79c1.54-0.52,2.96-1.45,4.25-2.77c1.3-1.33,2.39-3.16,3.28-5.5
		c0.89-2.34,1.34-5.36,1.34-9.06c0-3.7-0.45-6.72-1.34-9.06c-0.89-2.34-1.99-4.18-3.28-5.5c-1.29-1.33-2.71-2.25-4.25-2.77
		c-1.54-0.52-2.96-0.79-4.25-0.79c-1.3,0-2.71,0.26-4.26,0.79c-1.54,0.53-2.96,1.45-4.25,2.77c-1.29,1.33-2.39,3.16-3.28,5.5
		c-0.89,2.34-1.34,5.36-1.34,9.06C500.32,309.45,500.77,312.47,501.66,314.81z"/>
	<path d="M628.04,297.33c-0.13-0.62-0.34-1.46-0.65-2.54c-0.31-1.08-0.86-2.14-1.66-3.19c-0.8-1.05-1.87-1.97-3.19-2.77
		c-1.33-0.8-3.04-1.2-5.13-1.2c-2.4,0-4.41,0.52-6.01,1.57c-1.6,1.05-2.88,2.44-3.84,4.16c-0.96,1.73-1.65,3.67-2.08,5.83
		c-0.43,2.16-0.65,4.35-0.65,6.57c0,2.22,0.22,4.41,0.65,6.57c0.43,2.16,1.12,4.1,2.08,5.83c0.95,1.73,2.23,3.11,3.84,4.16
		c1.6,1.05,3.61,1.57,6.01,1.57c1.72,0,3.19-0.28,4.39-0.83c1.2-0.55,2.22-1.33,3.05-2.31c0.83-0.99,1.51-2.16,2.03-3.51
		c0.52-1.36,0.94-2.8,1.25-4.35h19.98c0,3.33-0.66,6.63-1.99,9.9c-1.33,3.27-3.27,6.21-5.83,8.83c-2.56,2.62-5.72,4.73-9.48,6.33
		c-3.76,1.6-8.05,2.4-12.85,2.4c-5.36,0-10.11-0.89-14.24-2.68c-4.13-1.79-7.63-4.22-10.5-7.31c-2.87-3.08-5.04-6.73-6.52-10.96
		c-1.48-4.22-2.22-8.77-2.22-13.64c0-5.18,0.79-9.89,2.36-14.15c1.57-4.25,3.82-7.89,6.75-10.91c2.93-3.02,6.44-5.36,10.54-7.03
		c4.1-1.66,8.71-2.5,13.83-2.5c9.12,0.06,16.17,2.36,21.13,6.89c4.96,4.53,7.88,10.96,8.74,19.28H628.04z"/>
	<path d="M657.08,291.83c1.6-4.22,3.87-7.86,6.8-10.91c2.93-3.05,6.46-5.44,10.59-7.17c4.13-1.73,8.69-2.59,13.69-2.59
		c4.99,0,9.56,0.86,13.69,2.59c4.13,1.73,7.66,4.11,10.59,7.17c2.93,3.05,5.19,6.69,6.8,10.91c1.6,4.22,2.4,8.86,2.4,13.92
		c0,5.06-0.8,9.7-2.4,13.92c-1.6,4.22-3.87,7.86-6.8,10.91c-2.93,3.05-6.46,5.44-10.59,7.17c-4.13,1.73-8.69,2.59-13.69,2.59
		c-4.99,0-9.56-0.86-13.69-2.59c-4.13-1.73-7.66-4.12-10.59-7.17c-2.93-3.05-5.2-6.69-6.8-10.91c-1.6-4.22-2.4-8.86-2.4-13.92
		C654.67,300.69,655.47,296.05,657.08,291.83z M676.36,314.81c0.89,2.34,1.99,4.18,3.28,5.5c1.3,1.33,2.71,2.25,4.25,2.77
		c1.54,0.53,2.96,0.79,4.25,0.79c1.29,0,2.71-0.26,4.25-0.79c1.54-0.52,2.96-1.45,4.25-2.77c1.3-1.33,2.39-3.16,3.28-5.5
		c0.89-2.34,1.34-5.36,1.34-9.06c0-3.7-0.45-6.72-1.34-9.06c-0.89-2.34-1.99-4.18-3.28-5.5c-1.29-1.33-2.71-2.25-4.25-2.77
		c-1.54-0.52-2.96-0.79-4.25-0.79c-1.3,0-2.71,0.26-4.25,0.79c-1.54,0.53-2.96,1.45-4.25,2.77c-1.29,1.33-2.39,3.16-3.28,5.5
		c-0.89,2.34-1.34,5.36-1.34,9.06C675.02,309.45,675.46,312.47,676.36,314.81z"/>
	<path d="M730.78,320.45h19.24v18.31h-19.24V320.45z"/>
</g>
</svg>
